<?xml version="1.0" encoding="utf-8"?>
<!-- Generator: Adobe Illustrator 25.0.0, SVG Export Plug-In . SVG Version: 6.00 Build 0)  -->
<svg version="1.1" id="Layer_2_1_" xmlns="http://www.w3.org/2000/svg" xmlns:xlink="http://www.w3.org/1999/xlink" x="0px" y="0px"
	 viewBox="0 0 1417.3 1417.3" style="enable-background:new 0 0 1417.3 1417.3;" xml:space="preserve">
<style type="text/css">
	.st0{fill:none;stroke:#FFFFFF;stroke-miterlimit:10;}
</style>
<g>
	<g>
		<path class="st0" d="M16.5,233.9c0,0,22,1.6,107.6,3.1c85.6,1.6,113.1-3.1,141.4-3.1s54.2,2.7,88.8,1.7
			c34.6-0.9,154.8,3,212.9-1.7s124.1,2.4,162.6,0s170.5,0.6,233.4-1.7s92.7-0.1,118.6,0s88-1.4,181.5-1c93.5,0.3,124.9,0,124.9,0
			s-3.9,68-4.7,111.2c-0.8,43.2-1.6,155.6,0,209.8s0,194.1,0,252.2v275c0,74.6,1.6,102.9,1.6,102.9s-107.6-4.7-231.8-3.1
			c-124.1,1.6-236.5,0.8-308,3.1c-71.5,2.4-113.9-3.9-172.9,0c-58.9,3.9-162.6,4.7-247.5,5.5s-171.3,1.6-207.4,3.1
			c-36.1,1.6-143.8,1.6-201.1,8.6c0,0-1.6-334.7,0-431.4c1.6-96.6,6.3-198,4.7-286C19.7,394.2,22.7,298.4,16.5,233.9z"/>
	</g>
</g>
</svg>
