<?xml version="1.0" encoding="utf-8"?>
<!-- Generator: Adobe Illustrator 25.0.0, SVG Export Plug-In . SVG Version: 6.00 Build 0)  -->
<svg version="1.1" id="Layer_2_1_" xmlns="http://www.w3.org/2000/svg" xmlns:xlink="http://www.w3.org/1999/xlink" x="0px" y="0px"
	 viewBox="0 0 1417.3 1417.3" style="enable-background:new 0 0 1417.3 1417.3;" xml:space="preserve">
<style type="text/css">
	.st0{fill:none;stroke:#FFFFFF;stroke-linecap:round;stroke-linejoin:round;stroke-miterlimit:10;}
	.st1{fill:none;stroke:#FFFFFF;stroke-width:0.5;stroke-linecap:round;stroke-linejoin:round;stroke-miterlimit:10.0004;}
	.st2{fill:none;stroke:#FFFFFF;stroke-width:0.5;stroke-linecap:round;stroke-linejoin:round;stroke-miterlimit:9.9996;}
</style>
<g>
	<g>
		<rect x="190.1" y="882.5" class="st0" width="66.3" height="90.5"/>
		<g>
			<g>
				<path class="st0" d="M200.7,927.8c0,2.1-1.7,3.9-3.9,3.9c-2.1,0-3.9-1.7-3.9-3.9c0-2.1,1.7-3.9,3.9-3.9
					C199,923.9,200.7,925.7,200.7,927.8z"/>
			</g>
			<g>
				
					<ellipse transform="matrix(0.1891 -0.982 0.982 0.1891 -751.34 945.6723)" class="st1" cx="196.9" cy="927.7" rx="2.4" ry="2.4"/>
			</g>
			<g>
				<path class="st0" d="M253.2,927.8c0,2.1-1.7,3.9-3.9,3.9c-2.1,0-3.9-1.7-3.9-3.9c0-2.1,1.7-3.9,3.9-3.9
					C251.4,923.9,253.2,925.7,253.2,927.8z"/>
			</g>
			<g>
				
					<ellipse transform="matrix(0.2298 -0.9732 0.9732 0.2298 -711.0404 957.2042)" class="st2" cx="249.3" cy="927.8" rx="2.4" ry="2.4"/>
			</g>
		</g>
	</g>
</g>
</svg>
