<?xml version="1.0" encoding="utf-8"?>
<!-- Generator: Adobe Illustrator 25.0.0, SVG Export Plug-In . SVG Version: 6.00 Build 0)  -->
<svg version="1.1" id="Layer_2" xmlns="http://www.w3.org/2000/svg" xmlns:xlink="http://www.w3.org/1999/xlink" x="0px" y="0px"
	 viewBox="0 0 1417.3 1417.3" style="enable-background:new 0 0 1417.3 1417.3;" xml:space="preserve">
<style type="text/css">
	.st0{fill:none;stroke:#FFFFFF;stroke-linecap:round;stroke-linejoin:round;stroke-miterlimit:10;}
	.st1{clip-path:url(#SVGID_2_);fill:none;stroke:#FFFFFF;stroke-linecap:round;stroke-linejoin:round;stroke-miterlimit:10;}
	
		.st2{clip-path:url(#SVGID_2_);fill:none;stroke:#FFFFFF;stroke-width:0.5;stroke-linecap:round;stroke-linejoin:round;stroke-miterlimit:10;}
	.st3{fill:none;stroke:#FFFFFF;stroke-width:0.5;stroke-linecap:round;stroke-linejoin:round;stroke-miterlimit:10;}
</style>
<g>
	<g>
		<polygon class="st0" points="1407,1036 13.5,1037 16.1,379.2 1401.8,378.1 		"/>
		<rect x="209.1" y="716.5" class="st0" width="106.6" height="142.9"/>
		<rect x="99.8" y="840.3" class="st0" width="42.6" height="77.5"/>
		<rect x="190.1" y="882.5" class="st0" width="66.3" height="90.5"/>
		<g>
			<defs>
				<rect id="SVGID_1_" x="-13.3" y="197.9" width="1458.5" height="1021"/>
			</defs>
			<clipPath id="SVGID_2_">
				<use xlink:href="#SVGID_1_"  style="overflow:visible;"/>
			</clipPath>
			<path class="st1" d="M313.4,789.2c0,2.1-1.7,3.9-3.9,3.9c-2.1,0-3.9-1.7-3.9-3.9s1.7-3.9,3.9-3.9
				C311.7,785.3,313.4,787,313.4,789.2z"/>
			
				<ellipse transform="matrix(0.2298 -0.9732 0.9732 0.2298 -529.6376 909.0907)" class="st2" cx="309.5" cy="789.2" rx="2.4" ry="2.4"/>
			<path class="st1" d="M220.4,789.1c0,2.1-1.7,3.9-3.9,3.9c-2.1,0-3.9-1.7-3.9-3.9c0-2.1,1.7-3.9,3.9-3.9
				C218.7,785.2,220.4,787,220.4,789.1z"/>
			
				<ellipse transform="matrix(0.1891 -0.982 0.982 0.1891 -599.2606 852.5057)" class="st2" cx="216.5" cy="789.1" rx="2.4" ry="2.4"/>
			<path class="st1" d="M139,879c0,2.1-1.7,3.9-3.9,3.9c-2.1,0-3.9-1.7-3.9-3.9c0-2.1,1.7-3.9,3.9-3.9
				C137.3,875.2,139,876.9,139,879z"/>
			
				<ellipse transform="matrix(0.1891 -0.982 0.982 0.1891 -753.5903 845.5327)" class="st2" cx="135.2" cy="879" rx="2.4" ry="2.4"/>
			<path class="st1" d="M112.5,879c0,2.1-1.7,3.9-3.9,3.9c-2.1,0-3.9-1.7-3.9-3.9c0-2.1,1.7-3.9,3.9-3.9
				C110.7,875.2,112.5,876.9,112.5,879z"/>
			<ellipse transform="matrix(0.1891 -0.982 0.982 0.1891 -775.119 819.4624)" class="st2" cx="108.6" cy="879" rx="2.4" ry="2.4"/>
			<path class="st1" d="M200.7,927.8c0,2.1-1.7,3.9-3.9,3.9c-2.1,0-3.9-1.7-3.9-3.9c0-2.1,1.7-3.9,3.9-3.9
				C199,923.9,200.7,925.7,200.7,927.8z"/>
			
				<ellipse transform="matrix(0.1891 -0.982 0.982 0.1891 -751.428 945.6582)" class="st2" cx="196.9" cy="927.8" rx="2.4" ry="2.4"/>
			<path class="st1" d="M253.2,927.8c0,2.1-1.7,3.9-3.9,3.9c-2.1,0-3.9-1.7-3.9-3.9c0-2.1,1.7-3.9,3.9-3.9
				C251.4,923.9,253.2,925.7,253.2,927.8z"/>
			
				<ellipse transform="matrix(0.2298 -0.9732 0.9732 0.2298 -710.9692 957.2579)" class="st2" cx="249.3" cy="927.8" rx="2.4" ry="2.4"/>
			<polygon class="st2" points="1356.3,885.4 596.9,885.9 596.8,513.8 1353.4,514.9 			"/>
		</g>
	</g>
</g>
<rect x="190.1" y="727.2" class="st3" width="98.3" height="125.1"/>
<rect x="88.7" y="844.3" class="st3" width="56.5" height="79.8"/>
<rect x="172.2" y="872.7" class="st3" width="80.2" height="131.5"/>
</svg>
