<?xml version="1.0" encoding="utf-8"?>
<!-- Generator: Adobe Illustrator 25.0.0, SVG Export Plug-In . SVG Version: 6.00 Build 0)  -->
<svg version="1.1" id="Layer_2" xmlns="http://www.w3.org/2000/svg" xmlns:xlink="http://www.w3.org/1999/xlink" x="0px" y="0px"
	 viewBox="0 0 1417.3 1417.3" style="enable-background:new 0 0 1417.3 1417.3;" xml:space="preserve">
<style type="text/css">
	.st0{fill:none;stroke:#FFFFFF;stroke-linecap:round;stroke-linejoin:round;stroke-miterlimit:10;}
	.st1{fill:none;stroke:#FFFFFF;stroke-miterlimit:10;}
	.st2{fill:none;stroke:#FFFFFF;stroke-width:0.5;stroke-linecap:round;stroke-linejoin:round;stroke-miterlimit:10;}
	.st3{clip-path:url(#SVGID_2_);fill:none;stroke:#FFFFFF;stroke-miterlimit:10;}
</style>
<g>
	<polyline class="st0" points="985.8,393.7 986.1,367.9 1213.7,367.9 1213.4,543.2 985.8,543.2 985.8,428.5 	"/>
	<polygon class="st0" points="1062.8,836.5 739.8,837.2 739.8,675.4 1062.8,674.7 	"/>
	<g>
		<path class="st1" d="M16.5,233.9c0,0,22,1.6,107.6,3.1c85.6,1.6,113.1-3.1,141.4-3.1c28.3,0,54.2,2.7,88.8,1.7
			c34.6-0.9,154.8,3,212.9-1.7c58.1-4.7,124.1,2.4,162.6,0c38.5-2.4,170.5,0.6,233.4-1.7c62.9-2.3,92.7-0.1,118.6,0
			c25.9,0.1,88-1.4,181.5-1c93.5,0.3,124.9,0,124.9,0s-3.9,68-4.7,111.2c-0.8,43.2-1.6,155.6,0,209.8c1.6,54.2,0,194.1,0,252.2v275
			c0,74.6,1.6,102.9,1.6,102.9s-107.6-4.7-231.8-3.1c-124.1,1.6-236.5,0.8-308,3.1c-71.5,2.4-113.9-3.9-172.9,0
			c-58.9,3.9-162.6,4.7-247.5,5.5c-84.9,0.8-171.3,1.6-207.4,3.1c-36.1,1.6-143.8,1.6-201.1,8.6c0,0-1.6-334.7,0-431.4
			c1.6-96.6,6.3-198,4.7-286C19.7,394.2,22.7,298.4,16.5,233.9z"/>
		<path class="st0" d="M1257.2,458.7c0,0,27.2,2.1,57.6,0v58.7c0,0-37.7-1-57.6-2.1C1257.2,515.2,1259.8,486.9,1257.2,458.7z"/>
		<path class="st0" d="M941.3,393.2c0,0,33.4,1.3,62.1,0v35.2c0,0-36.5,0.4-62.1,0C941.3,428.4,942.1,402.8,941.3,393.2z"/>
	</g>
</g>
<rect x="829.3" y="240.2" class="st2" width="543.8" height="341.6"/>
<g>
	<g>
		<defs>
			<rect id="SVGID_1_" x="1190.8" y="275.9" width="126.9" height="108.1"/>
		</defs>
		<clipPath id="SVGID_2_">
			<use xlink:href="#SVGID_1_"  style="overflow:visible;"/>
		</clipPath>
		<path class="st3" d="M1317.7,371.1c0-0.2,0-0.4-0.2-0.5c-5.3-0.2-9.1,6.2-12.7,9.5c-3.4,4.8-9.6,1.8-14.4,1.3
			c-6.2-1.8-12.8-0.7-18.8-3.1c-3.4-1.4-7.1-1.8-10.7-2.5c-7.4-2.4,1.5-9.7-12.4-18.2c-4.9-3.6-3.1-11.3-2.9-16.6
			c0.4-7.2-0.9-13.1-1-20.4c-0.3-7-7.3-13.5-13.6-15.5c-1.6-0.5-6.1-2.7-7.2-4.7c-0.1-0.1-0.2-0.3-0.3-0.5c-0.1-0.1,0.2-1.4,0.7-1.4
			c0.2-0.1,0.4-0.3,0.6-0.4c4.6-2.1,10.7-2.5,13.2-7.6c0.7-2.4,6-1.7,4.5-3c-4.8-1.6-5.7,5.2-9.8,6c-3.3,1.5-7.7,1.6-10,4.7
			c-1.4,1.6-3.4-2.7-4.8-3.3c-1.7-1.6-5.2-5.3-2.9-7.4c1.8-1.1,3.5-2.3,4.1-4.4c1.1-2.7-3.1-2.1-4.5-2.9c-2.6-0.7,0.5-3-0.8-4.5
			c-1.3,0.9-1.1,2.6-1.4,4c-0.2,2.3,3.2,1.8,4.7,2.4c2.6,0.8-3,3.9-3.5,4.8c-0.6,1.1-1.4,1.1-2.4,0.8c-3.9-1.4-7.9,1.3-11.8,0
			c-1.3-0.6-8.6,0.8-8.7,2.1c1.6,1,4-0.5,5.7-0.9c1-0.4,1.9-0.5,2.9-0.1c3.5,1.2,7.1-0.9,10.6-0.3c3.3-0.1,3.5,3.7,5.3,5.6
			c1.6,1.8,3.2,3.6,4.9,5.3c8.9,8.8,18.7,7.8,22.1,16.8c0.4,1.2,0.8,2.6,1,4.1c0.3,1.9,0.3,10.7,0.7,12.6c0.3,1.6,0.4,4.8,0.4,5.4
			c-0.6,5.4-1.5,13.1,1.6,17.9c1.2,1.8-2.6,2-2.7,3.6c1.2,0.4,2-0.9,3-1.3c2.7-1.2,5.2,3.4,7.3,4.8c4.6,3.4,0.1,12.4,7.4,13.6
			c5.7,1,11.1,2.9,16.8,4c8.3,0.3,14.4,2.5,23.1,2.9c3.8,0.2,6.8-6.1,9.8-8.4C1312.5,373.4,1315.5,372.9,1317.7,371.1
			C1317.7,371.2,1317.7,371.2,1317.7,371.1L1317.7,371.1z"/>
		<use xlink:href="#SVGID_1_"  style="overflow:visible;fill:none;stroke:#FFFFFF;stroke-miterlimit:10;"/>
	</g>
</g>
</svg>
