<?xml version="1.0" encoding="utf-8"?>
<!-- Generator: Adobe Illustrator 25.0.0, SVG Export Plug-In . SVG Version: 6.00 Build 0)  -->
<svg version="1.1" id="Layer_1" xmlns="http://www.w3.org/2000/svg" xmlns:xlink="http://www.w3.org/1999/xlink" x="0px" y="0px"
	 viewBox="0 0 1426.9 1554.8" style="enable-background:new 0 0 1426.9 1554.8;" xml:space="preserve">
<style type="text/css">
	.st0{fill:none;stroke:#FFFFFF;stroke-linecap:round;stroke-linejoin:round;stroke-miterlimit:10;}
</style>
<g id="Layer_2_1_">
	<g>
		<g>
			<g>
				<path class="st0" d="M187,82.2c0,0,183.3-0.8,312.9,0s426.5-5.4,519.3-4.6c92.8,0.8,199.4-0.1,199.4-0.1s-10,70.6-10,138.9
					s0,289.9-0.8,377.4c-0.8,87.4,3.8,701.8,3.8,701.8H938.7c-113.5,0-338.3-3.1-431.8-3.8c-93.6-0.8-266.9,6.9-329.8-2.3
					c0,0,14.6-159.5,15.3-281.5c0.8-122,8.4-327.5,6.9-424.2c-1.5-96.6-9.2-398.8-10.7-450.2L187,82.2z"/>
			</g>
		</g>
	</g>
</g>
<g id="Layer_4">
</g>
</svg>
