<?xml version="1.0" encoding="utf-8"?>
<!-- Generator: Adobe Illustrator 25.0.0, SVG Export Plug-In . SVG Version: 6.00 Build 0)  -->
<svg version="1.1" id="Layer_8" xmlns="http://www.w3.org/2000/svg" xmlns:xlink="http://www.w3.org/1999/xlink" x="0px" y="0px"
	 viewBox="0 0 1008 1440" style="enable-background:new 0 0 1008 1440;" xml:space="preserve">
<style type="text/css">
	.st0{fill:none;stroke:#000000;stroke-width:0.5;stroke-linecap:round;stroke-linejoin:round;stroke-miterlimit:10;}
	.st1{fill:none;stroke:#FFFFFF;stroke-linecap:round;stroke-linejoin:round;stroke-miterlimit:10;}
</style>
<line class="st0" x1="159.5" y1="556.8" x2="159.5" y2="554.3"/>
<line class="st0" x1="159.5" y1="402.8" x2="159.5" y2="400.2"/>
<line class="st0" x1="159.5" y1="416.6" x2="159.5" y2="414.1"/>
<line class="st0" x1="159.5" y1="472.9" x2="159.5" y2="470.3"/>
<line class="st0" x1="159.5" y1="486.7" x2="159.5" y2="484.2"/>
<line class="st0" x1="159.5" y1="543" x2="159.5" y2="540.4"/>
<line class="st0" x1="159.5" y1="570.8" x2="159.5" y2="568.2"/>
<line class="st0" x1="159.5" y1="851.2" x2="159.5" y2="848.6"/>
<line class="st0" x1="159.5" y1="627" x2="159.5" y2="624.5"/>
<line class="st0" x1="159.5" y1="640.9" x2="159.5" y2="638.3"/>
<line class="st0" x1="159.5" y1="697.1" x2="159.5" y2="694.6"/>
<line class="st0" x1="159.5" y1="711" x2="159.5" y2="708.4"/>
<line class="st0" x1="159.5" y1="767.3" x2="159.5" y2="764.7"/>
<line class="st0" x1="159.5" y1="781.1" x2="159.5" y2="778.5"/>
<line class="st0" x1="159.5" y1="837.4" x2="159.5" y2="834.8"/>
<line class="st0" x1="159.5" y1="865" x2="159.5" y2="862.5"/>
<line class="st0" x1="159.5" y1="921.3" x2="159.5" y2="918.7"/>
<line class="st0" x1="159.5" y1="935.1" x2="159.5" y2="932.6"/>
<line class="st0" x1="821.4" y1="437.8" x2="821.4" y2="435.3"/>
<line class="st0" x1="821.4" y1="451.6" x2="821.4" y2="449.1"/>
<line class="st0" x1="821.4" y1="507.9" x2="821.4" y2="505.4"/>
<line class="st0" x1="821.4" y1="521.8" x2="821.4" y2="519.2"/>
<line class="st0" x1="821.4" y1="592" x2="821.4" y2="589.5"/>
<line class="st0" x1="821.4" y1="605.8" x2="821.4" y2="603.3"/>
<line class="st0" x1="821.4" y1="662.1" x2="821.4" y2="659.6"/>
<line class="st0" x1="821.4" y1="675.9" x2="821.4" y2="673.4"/>
<line class="st0" x1="821.4" y1="732.2" x2="821.4" y2="729.7"/>
<line class="st0" x1="821.4" y1="746" x2="821.4" y2="743.5"/>
<line class="st0" x1="821.4" y1="802.3" x2="821.4" y2="799.8"/>
<line class="st0" x1="821.4" y1="816.1" x2="821.4" y2="813.6"/>
<line class="st0" x1="821.4" y1="886.2" x2="821.4" y2="883.7"/>
<line class="st0" x1="821.4" y1="900.1" x2="821.4" y2="897.5"/>
<line class="st0" x1="821.4" y1="956.3" x2="821.4" y2="953.8"/>
<g>
	<line class="st0" x1="159.5" y1="1005.2" x2="159.5" y2="1002.7"/>
	<line class="st0" x1="159.5" y1="1019" x2="159.5" y2="1016.5"/>
	<line class="st0" x1="821.4" y1="970.2" x2="821.4" y2="967.6"/>
	<line class="st0" x1="821.4" y1="984" x2="821.4" y2="981.4"/>
	<line class="st0" x1="821.4" y1="1040.3" x2="821.4" y2="1037.7"/>
</g>
<rect x="159.5" y="385.4" class="st1" width="661.9" height="654.9"/>
</svg>
