<?xml version="1.0" encoding="utf-8"?>
<!-- Generator: Adobe Illustrator 25.0.0, SVG Export Plug-In . SVG Version: 6.00 Build 0)  -->
<svg version="1.1" id="Layer_2_1_" xmlns="http://www.w3.org/2000/svg" xmlns:xlink="http://www.w3.org/1999/xlink" x="0px" y="0px"
	 viewBox="0 0 1417.3 1417.3" style="enable-background:new 0 0 1417.3 1417.3;" xml:space="preserve">
<style type="text/css">
	.st0{fill:none;stroke:#FFFFFF;stroke-linecap:round;stroke-linejoin:round;stroke-miterlimit:10;}
	.st1{fill:none;stroke:#FFFFFF;stroke-width:0.5;stroke-linecap:round;stroke-linejoin:round;stroke-miterlimit:10.0008;}
</style>
<g>
	<g>
		<rect x="99.8" y="840.3" class="st0" width="42.6" height="77.5"/>
		<g>
			<g>
				<path class="st0" d="M139,879c0,2.1-1.7,3.9-3.9,3.9c-2.1,0-3.9-1.7-3.9-3.9c0-2.1,1.7-3.9,3.9-3.9
					C137.3,875.2,139,876.9,139,879z"/>
			</g>
			<g>
				
					<ellipse transform="matrix(0.1891 -0.982 0.982 0.1891 -753.4414 845.5176)" class="st1" cx="135.2" cy="878.9" rx="2.4" ry="2.4"/>
			</g>
			<g>
				<path class="st0" d="M112.5,879c0,2.1-1.7,3.9-3.9,3.9c-2.1,0-3.9-1.7-3.9-3.9c0-2.1,1.7-3.9,3.9-3.9
					C110.7,875.2,112.5,876.9,112.5,879z"/>
			</g>
			<g>
				
					<ellipse transform="matrix(0.1891 -0.982 0.982 0.1891 -775.1063 819.4481)" class="st1" cx="108.6" cy="879" rx="2.4" ry="2.4"/>
			</g>
		</g>
	</g>
</g>
</svg>
