<?xml version="1.0" encoding="utf-8"?>
<!-- Generator: Adobe Illustrator 25.0.0, SVG Export Plug-In . SVG Version: 6.00 Build 0)  -->
<svg version="1.1" id="Layer_2" xmlns="http://www.w3.org/2000/svg" xmlns:xlink="http://www.w3.org/1999/xlink" x="0px" y="0px"
	 viewBox="0 0 1417.3 1417.3" style="enable-background:new 0 0 1417.3 1417.3;" xml:space="preserve">
<style type="text/css">
	.st0{fill:none;stroke:#FFFFFF;stroke-linecap:round;stroke-linejoin:round;stroke-miterlimit:10;}
	.st1{fill:none;stroke:#FFFFFF;stroke-width:0.5;stroke-linecap:round;stroke-linejoin:round;stroke-miterlimit:10;}
</style>
<g>
	<polygon class="st0" points="1255.4,1392.4 175.5,1391.2 179.2,24.9 1254,27.1 	"/>
	<rect x="271.5" y="857.4" class="st0" width="303" height="390.9"/>
	<g>
		
			<ellipse transform="matrix(0.9239 -0.3827 0.3827 0.9239 -314.3426 179.1048)" class="st0" cx="293" cy="879.7" rx="5.7" ry="5.7"/>
		<path class="st1" d="M296.3,879.7c0,1.8-1.5,3.2-3.2,3.2c-1.8,0-3.2-1.5-3.2-3.2c0-1.8,1.5-3.2,3.2-3.2
			C294.8,876.5,296.3,877.9,296.3,879.7z"/>
		<path class="st1" d="M294.9,879.7c0,1-0.8,1.9-1.9,1.9c-1,0-1.9-0.8-1.9-1.9c0-1,0.8-1.9,1.9-1.9
			C294.1,877.8,294.9,878.7,294.9,879.7z"/>
		
			<ellipse transform="matrix(0.9239 -0.3827 0.3827 0.9239 -294.4443 279.1406)" class="st0" cx="554.4" cy="879.7" rx="5.7" ry="5.7"/>
		<path class="st1" d="M557.7,879.7c0,1.8-1.5,3.2-3.2,3.2c-1.8,0-3.2-1.5-3.2-3.2c0-1.8,1.5-3.2,3.2-3.2
			C556.2,876.5,557.7,877.9,557.7,879.7z"/>
		<path class="st1" d="M556.3,879.7c0,1-0.8,1.9-1.9,1.9c-1,0-1.9-0.8-1.9-1.9c0-1,0.8-1.9,1.9-1.9
			C555.5,877.8,556.3,878.7,556.3,879.7z"/>
		
			<ellipse transform="matrix(0.9239 -0.3827 0.3827 0.9239 -446.2094 206.1306)" class="st0" cx="295" cy="1224.7" rx="5.7" ry="5.7"/>
		
			<ellipse transform="matrix(0.9239 -0.3827 0.3827 0.9239 -446.2092 206.1301)" class="st1" cx="295" cy="1224.7" rx="3.2" ry="3.2"/>
		<path class="st1" d="M296.9,1224.7c0,1-0.8,1.9-1.9,1.9c-1,0-1.9-0.8-1.9-1.9s0.8-1.9,1.9-1.9
			C296.1,1222.8,296.9,1223.7,296.9,1224.7z"/>
		
			<ellipse transform="matrix(0.9239 -0.3827 0.3827 0.9239 -427.381 304.7879)" class="st0" cx="552.4" cy="1226.7" rx="5.7" ry="5.7"/>
		
			<ellipse transform="matrix(0.9239 -0.3827 0.3827 0.9239 -427.3807 304.7874)" class="st1" cx="552.4" cy="1226.7" rx="3.2" ry="3.2"/>
		<path class="st1" d="M554.3,1226.7c0,1-0.8,1.9-1.9,1.9c-1,0-1.9-0.8-1.9-1.9s0.8-1.9,1.9-1.9
			C553.5,1224.8,554.3,1225.7,554.3,1226.7z"/>
		<polygon class="st1" points="551.6,1218.7 499.6,1219.1 499.6,1184.5 551.3,1184.3 		"/>
		<line class="st1" x1="271.5" y1="1136.3" x2="574.5" y2="1136.3"/>
		<line class="st1" x1="271.5" y1="879.1" x2="286.9" y2="879.1"/>
		<line class="st1" x1="299.2" y1="878.6" x2="548.4" y2="878.9"/>
		<line class="st1" x1="560.7" y1="879.1" x2="574.4" y2="879"/>
		<polygon class="st0" points="903,1250 600.3,1249.1 602.5,858.2 904.2,859.6 		"/>
		
			<ellipse transform="matrix(0.9239 -0.3827 0.3827 0.9239 -289.6466 305.2604)" class="st0" cx="622.5" cy="880.7" rx="5.7" ry="5.7"/>
		<path class="st1" d="M625.7,880.7c0,1.8-1.5,3.2-3.2,3.2c-1.8,0-3.2-1.5-3.2-3.2c0-1.8,1.5-3.2,3.2-3.2
			C624.3,877.5,625.7,878.9,625.7,880.7z"/>
		<path class="st1" d="M624.4,880.7c0,1-0.8,1.9-1.9,1.9c-1,0-1.9-0.8-1.9-1.9c0-1,0.8-1.9,1.9-1.9
			C623.5,878.8,624.4,879.7,624.4,880.7z"/>
		
			<ellipse transform="matrix(0.9239 -0.3827 0.3827 0.9239 -269.3656 405.2201)" class="st0" cx="883.9" cy="879.7" rx="5.7" ry="5.7"/>
		<path class="st1" d="M887.2,879.7c0,1.8-1.5,3.2-3.2,3.2c-1.8,0-3.2-1.5-3.2-3.2c0-1.8,1.5-3.2,3.2-3.2
			C885.7,876.5,887.2,877.9,887.2,879.7z"/>
		<path class="st1" d="M885.8,879.7c0,1-0.8,1.9-1.9,1.9c-1,0-1.9-0.8-1.9-1.9c0-1,0.8-1.9,1.9-1.9
			C884.9,877.8,885.8,878.7,885.8,879.7z"/>
		
			<ellipse transform="matrix(0.9239 -0.3827 0.3827 0.9239 -421.5895 331.9036)" class="st0" cx="623.5" cy="1225.7" rx="5.7" ry="5.7"/>
		
			<ellipse transform="matrix(0.9239 -0.3827 0.3827 0.9239 -421.5893 331.9031)" class="st1" cx="623.5" cy="1225.7" rx="3.2" ry="3.2"/>
		<path class="st1" d="M625.4,1225.7c0,1-0.8,1.9-1.9,1.9c-1,0-1.9-0.8-1.9-1.9s0.8-1.9,1.9-1.9
			C624.5,1223.8,625.4,1224.7,625.4,1225.7z"/>
		
			<ellipse transform="matrix(0.9239 -0.3827 0.3827 0.9239 -402.761 430.5609)" class="st0" cx="880.9" cy="1227.7" rx="5.7" ry="5.7"/>
		<path class="st1" d="M884.2,1227.7c0,1.8-1.5,3.2-3.2,3.2c-1.8,0-3.2-1.5-3.2-3.2s1.5-3.2,3.2-3.2
			C882.7,1224.4,884.2,1225.9,884.2,1227.7z"/>
		<path class="st1" d="M882.8,1227.7c0,1-0.8,1.9-1.9,1.9c-1,0-1.9-0.8-1.9-1.9s0.8-1.9,1.9-1.9
			C881.9,1225.8,882.8,1226.7,882.8,1227.7z"/>
		<polygon class="st1" points="879.7,1219.5 827.8,1219.8 827.7,1185.4 879.6,1185.4 		"/>
		<line class="st1" x1="600.9" y1="1135.5" x2="903.4" y2="1137.2"/>
		<line class="st1" x1="602.4" y1="879.1" x2="616.9" y2="879.1"/>
		<line class="st1" x1="627.1" y1="878.4" x2="877.6" y2="879.8"/>
		<line class="st1" x1="889.6" y1="879.7" x2="904.2" y2="879.7"/>
	</g>
</g>
<line class="st1" x1="245.5" y1="25" x2="240.8" y2="1391.3"/>
<line class="st1" x1="1245" y1="1392.4" x2="1243.4" y2="27.1"/>
</svg>
