<?xml version="1.0" encoding="utf-8"?>
<!-- Generator: Adobe Illustrator 25.0.0, SVG Export Plug-In . SVG Version: 6.00 Build 0)  -->
<svg version="1.1" id="Layer_1" xmlns="http://www.w3.org/2000/svg" xmlns:xlink="http://www.w3.org/1999/xlink" x="0px" y="0px"
	 viewBox="0 0 1426.9 1554.8" style="enable-background:new 0 0 1426.9 1554.8;" xml:space="preserve">
<style type="text/css">
	.st0{fill:none;stroke:#FFFFFF;stroke-miterlimit:10;}
</style>
<g id="Layer_2_1_">
	<g>
		<g>
			<g>
				<path class="st0" d="M932.4,484.1c-0.1-1,0.4-2,0.2-2.9C932.6,482.1,932.2,483.2,932.4,484.1L932.4,484.1z"/>
			</g>
			<g>
				<path class="st0" d="M937,531.4c-1.7,1.9-6.4,4-8.4,2.3c1.3-5.9-0.5-15.7,2.2-19.1C935.2,518.5,940.1,525.5,937,531.4L937,531.4
					z M928.3,515.4c-1.2,5.9,0.2,14-2.5,18.7c-11.5-2.1-22.1-6.7-31.8-13.1c-4.1-2.9-9.2-5.8-12.4-9.5c2.7-1,2.9-4.3,2.8-6.8
					c-0.8-4.5-6.3-3.8-8.5-6.4c-0.3-3.2-10.5-10-4.2-9.2c19.9,0.6,42.3-0.4,59-10.3c-0.8,5.4,0.4,33.1-4.3,33
					C928.3,512.7,928.7,513.6,928.3,515.4L928.3,515.4z M926.3,536.6c-20.5,14.1-48.9,12.5-71.7,5.4c8.7,2.1,17.6,3.6,26.3,4.5
					c-40.1-2.7-30.1-18.5-38.4-50.3c-1.9-4.1,0.7-1.8,3-0.4c0.2,7.9,7.1,11.2,12,15.7c3.7,6.3,11.5,15.2,17.9,6.7
					c3-1.7-0.9-6.1,2.5-5.6c8.2,1.4,14.5,10.3,22.6,13.5C907.9,531.2,920.4,533.4,926.3,536.6L926.3,536.6z M923.4,540.9
					c-2.2,0.8-4.4,2.6-6.5,2.7C918.8,542.8,921.7,541.1,923.4,540.9L923.4,540.9z M859.1,546.9c-8.9-0.6-25.3,1.8-31.5-5
					c8.6,5.1,21.3,4,31.7,5C859.2,546.9,859.1,546.9,859.1,546.9L859.1,546.9z M830.9,530.7c3.8-4.5,3.2-1.6,5.4-3.1
					c1.6-5.9,2.6,4.2,8.7,1.3c6-2.6,0.1,14,13.5,16.1C848.8,543.7,820.9,547.5,830.9,530.7L830.9,530.7z M836.3,515.2
					c4.3-4.2-6.5-6.5-9.4-9.4c0.4-2.4,3.1-4,5.4-1.9c10.3,2.8,9.9,13,13.1,21.4c1.8,2.3-1.2,2.1-2.8,2.3
					C837.2,527.3,838.2,519,836.3,515.2L836.3,515.2z M824.7,504c-4.1,2.6-12.8,9.3-16.5,4.2c-2.6-2.2,0.8-3.4,1.6-5.1
					c-13.4,6-23.4,3.5-33.2-2.8c0.9,1.3,3.5,2.4,3.2,4.2c-1.9,1.3-3.7,5.3-6.3,3.8c-6.3-3.7-22.5-10.7-11.4-18.1
					c3.1-1.5,1-3.6,4,0.9c-0.9-5.4-2.6-11.4-0.4-16.8c11.7-20,6.1-9.4,12.5-1.7c9.1,9.5,24.9,10.9,37,8c2.5-2,4.2,0.3,6,1.3
					c7.7,2.2,0,11.5-0.6,15.2c2.8-0.3,3.5-6.3,5.9-4.4C833.6,496.6,830.1,500.4,824.7,504L824.7,504z M761.5,503.6
					c-12,9.4-14.3,8-6.6,23.3c0.6,0.9,0.3,1-0.6,1c-7.9,0.8-9.5-9.1-9.3-15.3C745,508.5,760.3,495.7,761.5,503.6L761.5,503.6z
					 M755.7,523.9c2-0.2,8.8,2.6,5,4.1C757.7,529.4,755.2,525.6,755.7,523.9L755.7,523.9z M763.2,530.8c13.5,9.4,3.1,13.1-7.9,13.9
					c-8.2,1.1-19.1,3.7-26.5-2.1c-15-9.2-2-21.3,11.6-14.6c2.4,2.3,7,4.3,9.7,2.8c-3.4-0.1-11.7-4.5-5.2-6.7c2.9,5.3,5.4,5,11.2,4.9
					c-0.3,0.1-0.6,0.4-0.9,0.6c1.7,0.2,3.5-0.7,5.1-0.2c-2,1.1-4.6,0.9-6.6,2.1C756.9,532.1,760.3,530.2,763.2,530.8L763.2,530.8z
					 M771,543.3c2.1,2.5-7.8,3.9-9.6,3.2c-12.7,4-30.6,7-39.3-4.7c1.4-2.7,6.8,3.6,9.3,4.1C743.9,550.4,758.6,544.8,771,543.3
					L771,543.3z M720.6,532.4c-10.2,1.7-32.4-2-27.2-17c8.4-14.1,29.3-17.9,43.8-18.8c6.2-0.1,12.4-1.2,18.2-2
					c0.5-0.3,1.1-0.6,0.7,0.9c-0.4,0.9,1.9,2.6,1,3.6c-27.8,17.4-2.8,20.7-18.4,27C731.2,523.7,722.8,523.2,720.6,532.4L720.6,532.4
					z M775.5,459.7c12.6-22.1,4.4-5.4,25.7,4.7c5.2,3.5,10.8,6.8,16.6,9.3c7.1,10.1-17.8-5.2-20.2-6.7c-1.3-0.5-2.3-3.2-3.3-3.2
					c3.2,8.2,14.2,9.7,20.7,14.9C800.9,484.6,773.4,478.1,775.5,459.7L775.5,459.7z M782.9,444c-2-5.5-4.5-23,4-14.2
					c0.7-2-2.9-3.3-2.1-5.4c3.8-3.8,4.6-9.5,8.3-12.9c-1.2,3.6-3.2,7-2.9,11c-1.8,1.6,1.7,1.3,0.8,2.2c-9.5,9.5,2.3,5,9.4,12.9
					c-9.4-12.5-12.9-0.4-2.8-12.3c3.9-4.5,12.1-2.6,17.6-4.6c18.3-4.9,0.1,14.7-7.1,16.8C866.7,442,806.5,489.4,782.9,444L782.9,444
					z M781.5,445.2c-4.4-2.3-10.1-6.2-9.4-11.5c3.4-1.5,5-1.8,3.5-5.8c-1.8-3.2,5.3-3.3,6-1.5C777.8,431.9,782.5,441.9,781.5,445.2
					L781.5,445.2z M771.4,431c-5.6-0.6-11.9-9.8-4.6-12.7C769.3,420.6,779.8,431.6,771.4,431L771.4,431z M819.6,472.8
					c-5-2.8-15.1-6.1-17-10.1c4.8,1.3,9.4,2.1,14.3,1.3c0.9,0,2.2-0.6,2.1,1.3C818.9,467.4,821.7,471.4,819.6,472.8L819.6,472.8z
					 M824.1,480.3c1.8,3.6-4.6-0.9-5.3-2c1.7-2,1.6,0.4,3.6-2.6c1.1,0.7,1,2.7,1.5,3.8 M797.9,409.2c29.6-11.5,59.4,21.3,36.4,47.3
					c4-5.7,6-1.8,10.6-0.8c4.3,2.9,33,13.8,19,12.9c-4.5,0.3-30-15.1-27.9-10.5c6.8,4.9,17.9,7.4,23.7,11.6
					c-5.3,0.8-10.4,2-15.2,4.2c1.1-0.3,4.3,0.6,4.4-0.8c-4.6,0.3-10,2.8-12.6,7c-9.7-2.7-14.6-5.4-16.3-16.1
					c1.2-2.2,6.7-1.5,8.7-3.7l0.2-0.6c-0.9,1.3,2.2-1.6,3-1.9c1.5-0.4,3.2-2.4,2.7-3.2c1.5-9.7-9-18.2-19.7-18.3
					c2.4-3.3,12.2-8.5,9.4-15.2c-2.3-6.4-8.8-1.6-13.7-1.3C796.8,422.3,782.9,426.8,797.9,409.2L797.9,409.2z M805.4,398.6
					L805.4,398.6c0.2-18.5,36.4-17.3,35.5,0.7c-4.5,8.9-14.9,11.6-23.6,7.4C811.4,405.9,804.5,406.7,805.4,398.6L805.4,398.6z
					 M845.4,419.4c16-11.5,36.8,14.1,20.9,26.4c-3.1,2,3.3-4.7,3-6.7c-1-0.6-3,3.8-4.5,4.6c-5.7,5.5-24.5,8.4-21.1-4
					C844.9,433.1,837.7,423.2,845.4,419.4L845.4,419.4z M847.3,485.9c1.4,0.3,2.8,0.9,4.2,0.8C850.2,488.4,848.5,486.8,847.3,485.9
					L847.3,485.9z M839.2,484c2.9,0.3,6.2,3.2,9.1,4.4c-1.4,5.1-2.5,6.9-6.9,2.6 M824.8,477.6c1.4-0.7,12.8,4.3,13.3,7.1
					c4.6,10.7-7.7-0.4-11.3-1.3 M831.2,494.8c-3.3-2.8-7-4.5-4.9-9.4c4.1,0.7,8.4,4.8,12.7,6.4c4.8,9.1,5.2,21.7,7.3,32
					c-2.5-11-4.1-18.3-15.8-22.3C831.9,499.2,834.6,496.6,831.2,494.8L831.2,494.8z M870.3,501c-0.8,1.1-1.3,0.5-1.9-0.2
					c-3-2.5,1.4,5.1-0.8,6.9c-11.7,6.9-11.8-8.5-11.9,0.6c-4.6-1.9-8.4-6.4-8.7-11.4c2.5,0.9,4.6,3.5,7.2,3.4
					c-0.7-3-6.4-3.2-7.1-6.1c2.4-7.4,3.6-2.4,8.3-1.6c-4.5-5.6-3.1-3.1,3-3c-2-1.8-4.8-0.8-7.1-1.1c3.4-3.2,8.7,0.4,12.7,0.1
					C869.6,488.2,874.1,497.1,870.3,501L870.3,501z M870.4,502.8c0.3-0.2,1.2-1.5,1.2-0.8C871.3,502.7,870.9,504.4,870.4,502.8
					L870.4,502.8z M872.1,507.2c0.2,1.1,2.5,3.5,1.5,4.1c-1.5-1-5.5-2.4-2.8-4.2C871.3,506.6,871.7,506.4,872.1,507.2L872.1,507.2z
					 M873.1,499.3c0-1.5-1.9-4.8-0.7-5.4C873.5,495.7,876.8,498.4,873.1,499.3L873.1,499.3z M875.8,501c-1.7-1.2,1.7-0.8,2.4-0.3
					C877.4,500.8,876.6,500.9,875.8,501L875.8,501z M872.8,502.1c0.5-0.5,0.7-2.1,1.5-1.4C873.8,501,873,502.7,872.8,502.1
					L872.8,502.1z M874.8,515.1c-5.5,9.4-10.6,3.3-15.9-4.6C864.3,511.1,874.1,507.2,874.8,515.1L874.8,515.1z M874.9,506.7
					c0.7,1.6,4.5,3.8,3.6,5c-1.5,0.3-2.8,0.5-3.3-1.6c-1-2.9-3.7-4.5-0.9-7.3c4-5.1,12.1,1.6,8.1,6.6c-3,4.3-5-3.6-7.7-4.6
					C874.7,505.4,874.6,506.2,874.9,506.7L874.9,506.7z M929.1,473.5c6,5-16.4,9.3-8,8.1c-22.9,7.4-43.6,5.4-67.4,3.8
					c5.9-0.7,12.3-2.7,18.1-2c3.1,1.7,6.6-0.9,9.9-1c3.6,2.3,7.3,0.9,10.9,0.4c4.8,1,9.6,0.6,14.3,0.9c-6.2-3.2-15.4-1.8-22.3-1.2
					c-4.2-3.7-8.5,1.7-12.9-0.3c-10.7,0-21.4,5.2-31.8-0.3c-6.9-6.1,29-13.6,33.2-11.5c6.4-3.1,17-1.4,25.2-1.7
					c9.8,1.2,23.4-0.1,31.1,3.9 M937.7,520.6c-1.5-3.7-5.4-5.7-7.4-8.8c0.7-12.5,3-25,2-37.5c-5.3-12.3-49.2-4.9-61.1-7
					c-9.7-5.8-20.1-10.8-30.6-15c-2.1-0.7,0.6-2.9,0.8-4.3c48.2,12.8,35.4-43.4,4.2-30.9c-9.3,7.4-1.8,7-11.3-2.3
					c-13.2-7.5,5.5-3.9,8-15.5c-0.3-16.8-28.8-20.4-36.7-7c-4.2,7,4.4,14-3.5,14.2c-6.4,2.2-13.2,5-16.5,11.3
					c-1.6,1.6-1.7,5.5-4.4,5.6c-2.6-0.8-5.2,0.5-7.6,1.1c-3.3-8.2-14-10.6-10.7,1.1c1.2,4.1,5.2,5.3,8.1,7.6
					c-1.3,6,5.9,12.9,11.6,13.5c-0.4,2.7-7.4,9.3-8.8,14.1c-19.6,15.4-3,25.7-16.3,28.5c-20.2,4.9-42.5,5.8-59.9,18.2
					c-18.7,14.1,7,30.1,22.2,26.2c1.2-0.2,1,0.2,1.1,1c-0.4,1.7,1.5,3.8,0.3,5.1c-4.2,7.2,11.7,10.8,17,11.4
					c3.7,0.1,44.2-2.6,33.5-9.7c-0.4-2.2,0.5-4.5-1.1-6.6c-2.9-4.9,14.4,0.9,11.2-3.5c-5.9-0.6-14.5,2.5-18.2-3.2
					c-0.2-9.9-8.6,1.3-11.5-14.4c2.3-3.6,7.9-7.3,11.8-9.2c5.3,3.6,12.3,7.7,17.1,1.2c7.3-0.4,16.4,4.7,24.4,0.7
					c4.5,7.8,13.2,4.4,19.4-0.1c1.9-0.6,12.1,5.3,10,7.8c7,18.6-8.8,5.6-7.3,25.9c-7.5,11.7,39.5,7.9,47,7.4
					c13.9,1.8,27.7,0.3,41.3-2.6c5.3-2,10-4.7,13.5-9.1C938.7,535.4,942.8,529.1,937.7,520.6L937.7,520.6z"/>
			</g>
		</g>
		<path class="st0" d="M874.1,511.2c-0.3,0.1-0.4,0.2-0.5,0.2"/>
		<path class="st0" d="M871.5,501.7c0,0.1,0.1,0.2,0.1,0.3"/>
		<path class="st0" d="M810.1,489.5c0-1.5-0.9-2.4-2.9-3.4c-1.3-1-2.2,1.9-2.5,0.7c0.7-1.2-0.3-1-0.9-1
			C790,487.1,808.1,500.3,810.1,489.5L810.1,489.5z M797.3,488.9c-0.1-5.7,10.2-4.8,13-2.2C816.8,495.3,797,498.3,797.3,488.9
			L797.3,488.9z"/>
		<path class="st0" d="M779.1,489.1c-8.5,0.3-2-8.7,2-7c-0.7,0.2-3,1.8-1.2,1.5C786.2,479.3,784.3,490,779.1,489.1L779.1,489.1z
			 M785.5,483.8c-1.9-5.9-12.3-2.6-11.8,3C774,493.6,787.2,489.2,785.5,483.8L785.5,483.8z"/>
		<path class="st0" d="M788.3,445.2c8.5,2.4,27.4,2.1,31.1,10.1c-9.4-4.5-20.5-7.1-31.1-8.3C787.7,446.6,787.4,445.8,788.3,445.2
			L788.3,445.2z"/>
		<path class="st0" d="M793.9,435.3c0.8,0.7,3.8,3.8,2.7,3.8C795.8,437.9,793.4,436.9,793.9,435.3L793.9,435.3z"/>
	</g>
</g>
<g id="Layer_4">
</g>
</svg>
