<?xml version="1.0" encoding="utf-8"?>
<!-- Generator: Adobe Illustrator 25.0.0, SVG Export Plug-In . SVG Version: 6.00 Build 0)  -->
<svg version="1.1" id="Layer_2_1_" xmlns="http://www.w3.org/2000/svg" xmlns:xlink="http://www.w3.org/1999/xlink" x="0px" y="0px"
	 viewBox="0 0 1417.3 1417.3" style="enable-background:new 0 0 1417.3 1417.3;" xml:space="preserve">
<style type="text/css">
	.st0{fill:none;stroke:#FFFFFF;stroke-linecap:round;stroke-linejoin:round;stroke-miterlimit:10;}
	.st1{fill:none;stroke:#FFFFFF;stroke-width:1;stroke-linecap:round;stroke-linejoin:round;stroke-miterlimit:10.0003;}
	.st2{fill:none;stroke:#FFFFFF;stroke-width:0.5;stroke-linecap:round;stroke-linejoin:round;stroke-miterlimit:10;}
	.st3{fill:none;stroke:#FFFFFF;stroke-width:0.5;stroke-linecap:round;stroke-linejoin:round;stroke-miterlimit:10.0003;}
</style>
<g>
	<g>
		<polygon class="st0" points="903,1250 600.3,1249.1 602.5,858.2 904.2,859.6 		"/>
		<ellipse class="st1" cx="622.5" cy="880.7" rx="5.7" ry="5.7"/>
		<path class="st2" d="M625.7,880.7c0,1.8-1.5,3.2-3.2,3.2c-1.8,0-3.2-1.5-3.2-3.2c0-1.8,1.5-3.2,3.2-3.2
			C624.3,877.5,625.7,878.9,625.7,880.7z"/>
		<path class="st2" d="M624.4,880.7c0,1-0.8,1.9-1.9,1.9c-1,0-1.9-0.8-1.9-1.9c0-1,0.8-1.9,1.9-1.9
			C623.5,878.8,624.4,879.7,624.4,880.7z"/>
		<ellipse class="st1" cx="883.9" cy="879.7" rx="5.7" ry="5.7"/>
		<path class="st2" d="M887.2,879.7c0,1.8-1.5,3.2-3.2,3.2c-1.8,0-3.2-1.5-3.2-3.2c0-1.8,1.5-3.2,3.2-3.2S887.2,877.9,887.2,879.7z"
			/>
		<path class="st2" d="M885.8,879.7c0,1-0.8,1.9-1.9,1.9c-1,0-1.9-0.8-1.9-1.9c0-1,0.8-1.9,1.9-1.9
			C884.9,877.8,885.8,878.7,885.8,879.7z"/>
		
			<ellipse transform="matrix(0.9239 -0.3827 0.3827 0.9239 -421.6033 331.9272)" class="st1" cx="623.5" cy="1225.7" rx="5.7" ry="5.7"/>
		
			<ellipse transform="matrix(0.9239 -0.3827 0.3827 0.9239 -421.6031 331.9273)" class="st3" cx="623.5" cy="1225.7" rx="3.2" ry="3.2"/>
		<path class="st2" d="M625.4,1225.7c0,1-0.8,1.9-1.9,1.9c-1,0-1.9-0.8-1.9-1.9s0.8-1.9,1.9-1.9
			C624.5,1223.8,625.4,1224.7,625.4,1225.7z"/>
		
			<ellipse transform="matrix(0.9239 -0.3827 0.3827 0.9239 -402.7733 430.586)" class="st1" cx="880.9" cy="1227.7" rx="5.7" ry="5.7"/>
		<path class="st2" d="M884.2,1227.7c0,1.8-1.5,3.2-3.2,3.2c-1.8,0-3.2-1.5-3.2-3.2s1.5-3.2,3.2-3.2
			C882.7,1224.4,884.2,1225.9,884.2,1227.7z"/>
		<path class="st2" d="M882.8,1227.7c0,1-0.8,1.9-1.9,1.9c-1,0-1.9-0.8-1.9-1.9s0.8-1.9,1.9-1.9
			C881.9,1225.8,882.8,1226.7,882.8,1227.7z"/>
	</g>
</g>
</svg>
