<?xml version="1.0" encoding="utf-8"?>
<!-- Generator: Adobe Illustrator 25.0.0, SVG Export Plug-In . SVG Version: 6.00 Build 0)  -->
<svg version="1.1" id="Layer_2_1_" xmlns="http://www.w3.org/2000/svg" xmlns:xlink="http://www.w3.org/1999/xlink" x="0px" y="0px"
	 viewBox="0 0 1417.3 1417.3" style="enable-background:new 0 0 1417.3 1417.3;" xml:space="preserve">
<style type="text/css">
	.st0{fill:none;stroke:#FFFFFF;stroke-linecap:round;stroke-linejoin:round;stroke-miterlimit:10;}
	.st1{fill:none;stroke:#FFFFFF;stroke-width:1;stroke-linecap:round;stroke-linejoin:round;stroke-miterlimit:10.0003;}
	.st2{fill:none;stroke:#FFFFFF;stroke-width:0.5;stroke-linecap:round;stroke-linejoin:round;stroke-miterlimit:10;}
	.st3{fill:none;stroke:#FFFFFF;stroke-width:0.5;stroke-linecap:round;stroke-linejoin:round;stroke-miterlimit:10.0003;}
</style>
<g>
	<rect x="271.5" y="857.4" class="st0" width="303" height="390.9"/>
	<g>
		<ellipse class="st1" cx="293" cy="879.7" rx="5.7" ry="5.7"/>
		<path class="st2" d="M296.3,879.7c0,1.8-1.5,3.2-3.2,3.2c-1.8,0-3.2-1.5-3.2-3.2c0-1.8,1.5-3.2,3.2-3.2S296.3,877.9,296.3,879.7z"
			/>
		<path class="st2" d="M294.9,879.7c0,1-0.8,1.9-1.9,1.9c-1,0-1.9-0.8-1.9-1.9c0-1,0.8-1.9,1.9-1.9S294.9,878.7,294.9,879.7z"/>
		<ellipse class="st1" cx="554.4" cy="879.7" rx="5.7" ry="5.7"/>
		<path class="st2" d="M557.7,879.7c0,1.8-1.5,3.2-3.2,3.2c-1.8,0-3.2-1.5-3.2-3.2c0-1.8,1.5-3.2,3.2-3.2S557.7,877.9,557.7,879.7z"
			/>
		<path class="st2" d="M556.3,879.7c0,1-0.8,1.9-1.9,1.9c-1,0-1.9-0.8-1.9-1.9c0-1,0.8-1.9,1.9-1.9S556.3,878.7,556.3,879.7z"/>
		
			<ellipse transform="matrix(0.9239 -0.3827 0.3827 0.9239 -446.235 206.1374)" class="st1" cx="295" cy="1224.7" rx="5.7" ry="5.7"/>
		
			<ellipse transform="matrix(0.9239 -0.3827 0.3827 0.9239 -446.2349 206.1375)" class="st3" cx="295" cy="1224.7" rx="3.2" ry="3.2"/>
		<path class="st2" d="M296.9,1224.7c0,1-0.8,1.9-1.9,1.9c-1,0-1.9-0.8-1.9-1.9s0.8-1.9,1.9-1.9
			C296.1,1222.8,296.9,1223.7,296.9,1224.7z"/>
		
			<ellipse transform="matrix(0.9239 -0.3827 0.3827 0.9239 -427.4051 304.7962)" class="st1" cx="552.4" cy="1226.7" rx="5.7" ry="5.7"/>
		
			<ellipse transform="matrix(0.9239 -0.3827 0.3827 0.9239 -427.4049 304.7963)" class="st3" cx="552.4" cy="1226.7" rx="3.2" ry="3.2"/>
		<path class="st2" d="M554.3,1226.7c0,1-0.8,1.9-1.9,1.9c-1,0-1.9-0.8-1.9-1.9s0.8-1.9,1.9-1.9
			C553.5,1224.8,554.3,1225.7,554.3,1226.7z"/>
	</g>
</g>
</svg>
