<?xml version="1.0" encoding="utf-8"?>
<!-- Generator: Adobe Illustrator 25.0.0, SVG Export Plug-In . SVG Version: 6.00 Build 0)  -->
<svg version="1.1" id="Layer_1" xmlns="http://www.w3.org/2000/svg" xmlns:xlink="http://www.w3.org/1999/xlink" x="0px" y="0px"
	 viewBox="0 0 4132.8 2991.5" style="enable-background:new 0 0 4132.8 2991.5;" xml:space="preserve">
<style type="text/css">
	.st0{fill:none;stroke:#FFFFFF;}
	.st1{fill:none;stroke:#FFFFFF;stroke-miterlimit:10;}
	.st2{fill:#FFFFFF;}
	.st3{font-family:'Univers-Oblique';}
	.st4{font-size:8px;}
</style>
<rect x="732.8" y="587.4" class="st0" width="433.7" height="313.1"/>
<rect x="1861.4" y="1988.9" class="st0" width="433.7" height="566.2"/>
<rect x="2992.6" y="597.4" class="st0" width="433.7" height="266.7"/>
<rect x="1867.4" y="1293.6" class="st0" width="422.4" height="354.4"/>
<rect x="1867.4" y="592.7" class="st0" width="422.4" height="324.1"/>
<rect x="2574.7" y="1293.6" class="st0" width="422.4" height="171.8"/>
<rect x="1867.4" y="1994.4" class="st0" width="422.4" height="554.6"/>
<rect x="1160.2" y="1293.6" class="st0" width="422.4" height="313.1"/>
<rect x="2998" y="604.9" class="st0" width="422.4" height="253.3"/>
<rect x="2998.3" y="1979.4" class="st0" width="422.4" height="324.1"/>
<rect x="739.1" y="1979.4" class="st0" width="422.4" height="427"/>
<rect x="737.8" y="593.7" class="st0" width="422.4" height="301.8"/>
<line class="st0" x1="1709.2" y1="764.2" x2="1709.2" y2="1319.8"/>
<line class="st0" x1="1814" y1="1509.2" x2="1814" y2="2085.8"/>
<line class="st0" x1="2448" y1="687.2" x2="2448" y2="1357.6"/>
<line class="st0" x1="1709.2" y1="764.7" x2="1862.2" y2="764.7"/>
<line class="st0" x1="2289.8" y1="1430.3" x2="2569.1" y2="1430.3"/>
<line class="st0" x1="2289.8" y1="1357.1" x2="2448.5" y2="1357.1"/>
<line class="st0" x1="1708.7" y1="1320.3" x2="1867.4" y2="1320.3"/>
<line class="st0" x1="2447.5" y1="687.7" x2="2992.1" y2="687.7"/>
<line class="st0" x1="2289.8" y1="1470.3" x2="2456.3" y2="1470.3"/>
<line class="st0" x1="2456.8" y1="1469.8" x2="2456.8" y2="2143.2"/>
<line class="st0" x1="2456.8" y1="2142.7" x2="2990.9" y2="2142.7"/>
<line class="st0" x1="1813.5" y1="1509.7" x2="1867.4" y2="1509.7"/>
<line class="st0" x1="2070.3" y1="2549" x2="2070.3" y2="2617"/>
<line class="st0" x1="1813.5" y1="2086.3" x2="1861.9" y2="2086.3"/>
<line class="st0" x1="1710.6" y1="1544.4" x2="1867.4" y2="1544.4"/>
<line class="st0" x1="1711.2" y1="1543.9" x2="1711.2" y2="1995.9"/>
<line class="st0" x1="1167" y1="1995.4" x2="1711.6" y2="1995.4"/>
<line class="st0" x1="1647.1" y1="1632.1" x2="1867.4" y2="1632.1"/>
<line class="st0" x1="1646.6" y1="750" x2="1646.6" y2="1632.6"/>
<line class="st0" x1="1612.3" y1="1589.7" x2="1867.4" y2="1589.7"/>
<line class="st0" x1="1612.8" y1="1385.1" x2="1612.8" y2="1590.2"/>
<line class="st0" x1="1588" y1="1384.6" x2="1613.3" y2="1384.6"/>
<line class="st0" x1="1165.7" y1="749.5" x2="1647.1" y2="749.5"/>
<line class="st0" x1="1867.2" y1="2029.4" x2="2289.3" y2="2029.4"/>
<line class="st0" x1="1867.6" y1="2144.7" x2="2290.3" y2="2144.7"/>
<line class="st0" x1="1867.6" y1="2174.2" x2="2289.6" y2="2174.2"/>
<line class="st0" x1="1867.6" y1="2303.2" x2="2289.7" y2="2303.2"/>
<line class="st0" x1="1867.6" y1="2332.2" x2="2289.7" y2="2332.2"/>
<line class="st0" x1="1867.9" y1="2476.8" x2="2289.7" y2="2476.8"/>
<line class="st0" x1="2998.8" y1="2029.5" x2="3420.9" y2="2029.5"/>
<line class="st0" x1="2998.8" y1="2058.7" x2="3420.6" y2="2058.7"/>
<line class="st0" x1="2997.8" y1="2129.2" x2="3420.9" y2="2129.2"/>
<line class="st0" x1="2997.8" y1="2201.2" x2="3420.7" y2="2201.2"/>
<line class="st0" x1="1867.4" y1="1330.2" x2="2289.8" y2="1330.2"/>
<line class="st0" x1="1867.6" y1="1413" x2="2289.6" y2="1413"/>
<line class="st0" x1="1867.4" y1="1443.2" x2="2290.3" y2="1443.2"/>
<line class="st0" x1="1867.4" y1="1488.9" x2="2290.3" y2="1488.9"/>
<line class="st0" x1="1866.9" y1="1530.5" x2="2289.8" y2="1530.5"/>
<line class="st0" x1="1867.4" y1="1558.4" x2="2290.3" y2="1558.4"/>
<line class="st0" x1="1867.4" y1="1616.6" x2="2289.8" y2="1616.6"/>
<line class="st0" x1="2998.4" y1="640" x2="3420.5" y2="640"/>
<line class="st0" x1="2998.1" y1="668.8" x2="3420.2" y2="668.8"/>
<line class="st0" x1="2998.1" y1="697.9" x2="3420.2" y2="697.9"/>
<line class="st0" x1="2998.4" y1="753.6" x2="3420.5" y2="753.6"/>
<line class="st0" x1="1160.3" y1="1558.4" x2="1582.4" y2="1558.4"/>
<line class="st0" x1="1160.3" y1="1529.1" x2="1582.4" y2="1529.1"/>
<line class="st0" x1="1159.7" y1="1412.9" x2="1582.5" y2="1412.9"/>
<line class="st0" x1="1160.3" y1="1355.7" x2="1582.4" y2="1355.7"/>
<line class="st0" x1="2574.6" y1="1343" x2="2997.5" y2="1343"/>
<line class="st0" x1="2574.7" y1="1373.4" x2="2996.7" y2="1373.4"/>
<line class="st0" x1="2574.7" y1="1400.5" x2="2996.7" y2="1400.5"/>
<line class="st0" x1="2574.7" y1="1428.4" x2="2996.7" y2="1428.4"/>
<line class="st0" x1="739" y1="2027.9" x2="1161.1" y2="2027.9"/>
<line class="st0" x1="739.2" y1="2169.7" x2="1161.3" y2="2169.7"/>
<line class="st0" x1="739.6" y1="2273.4" x2="1161.7" y2="2273.4"/>
<line class="st0" x1="738.6" y1="2232.1" x2="1161.7" y2="2232.1"/>
<line class="st0" x1="738.7" y1="2359.3" x2="1162" y2="2359.3"/>
<line class="st0" x1="737.9" y1="628.2" x2="1160" y2="628.2"/>
<line class="st0" x1="737.9" y1="658.4" x2="1160" y2="658.4"/>
<line class="st0" x1="737.9" y1="713.2" x2="1160" y2="713.2"/>
<line class="st0" x1="737.8" y1="744.4" x2="1160.7" y2="744.4"/>
<line class="st0" x1="737.4" y1="798.3" x2="1160.2" y2="798.3"/>
<line class="st0" x1="1867.6" y1="626.7" x2="2289.7" y2="626.7"/>
<line class="st0" x1="1867.6" y1="657.7" x2="2289.7" y2="657.7"/>
<line class="st0" x1="1867.6" y1="814" x2="2289.6" y2="814"/>
<line class="st0" x1="1867.6" y1="857.9" x2="2289.6" y2="857.9"/>
<line class="st0" x1="1867.6" y1="886.4" x2="2289.6" y2="886.4"/>
<rect x="1249.2" y="2346" class="st0" width="564.4" height="308.3"/>
<rect x="3418.6" y="1272.1" class="st0" width="199.8" height="199.8"/>
<rect x="1481.9" y="342.4" class="st0" width="155.7" height="278.7"/>
<rect x="1657.8" y="342.4" class="st0" width="155.7" height="278.7"/>
<rect x="3133.3" y="1276.3" class="st0" width="197.1" height="197.1"/>
<rect x="3500" y="1958.8" class="st0" width="181.5" height="162.6"/>
<rect x="441.9" y="605.8" class="st0" width="242.4" height="254.4"/>
<rect x="1238.6" y="1656.4" class="st0" width="266.5" height="198.4"/>
<rect x="3109.3" y="967.2" class="st0" width="198.1" height="156.2"/>
<line class="st0" x1="738.1" y1="828.9" x2="1160.2" y2="828.9"/>
<line class="st0" x1="737.4" y1="860.3" x2="1160.2" y2="860.3"/>
<rect x="2702.4" y="2264.6" class="st0" width="203" height="148.5"/>
<rect x="1646.5" y="2142.7" class="st0" width="166.5" height="177"/>
<rect x="875.2" y="1295.2" class="st0" width="220.3" height="236.4"/>
<rect x="3087.5" y="2331.9" class="st0" width="241.5" height="322"/>
<rect x="3064.6" y="342.4" class="st0" width="288" height="216.3"/>
<rect x="484.8" y="1294.1" class="st0" width="331.3" height="457.8"/>
<rect x="2393.9" y="2209.9" class="st0" width="137.2" height="160.1"/>
<rect x="1249.7" y="2142.1" class="st0" width="166.5" height="177.6"/>
<rect x="2373" y="2403" class="st0" width="179" height="212.6"/>
<rect x="2347.1" y="363.4" class="st0" width="200.8" height="180.4"/>
<rect x="1947.1" y="342.4" class="st0" width="250.2" height="222.4"/>
<rect x="2007" y="1777.4" class="st0" width="144.6" height="156.2"/>
<rect x="890" y="944.4" class="st0" width="114.4" height="160.2"/>
<rect x="3489.3" y="2267.8" class="st0" width="223.9" height="168.9"/>
<rect x="2730.8" y="1958.8" class="st0" width="181.5" height="165.5"/>
<rect x="1458.6" y="2142.3" class="st0" width="145.6" height="177.5"/>
<rect x="2023.8" y="1121" class="st0" width="96.8" height="64.2"/>
<rect x="3489.2" y="822.1" class="st0" width="146.6" height="63.8"/>
<rect x="2744.6" y="817.5" class="st0" width="114.4" height="71.9"/>
<line class="st0" x1="2289.7" y1="2490.8" x2="2372.6" y2="2490.8"/>
<line class="st0" x1="2290.3" y1="2318.1" x2="2393.4" y2="2318.1"/>
<line class="st0" x1="2289.6" y1="2393.6" x2="2315.5" y2="2393.6"/>
<line class="st0" x1="1332.9" y1="2074.7" x2="1866.9" y2="2074.7"/>
<line class="st0" x1="1813.5" y1="2173.7" x2="1866.9" y2="2173.7"/>
<line class="st0" x1="1840.5" y1="2233.1" x2="1866.9" y2="2233.1"/>
<line class="st0" x1="1623.5" y1="2010.5" x2="1866.9" y2="2010.5"/>
<line class="st0" x1="2316" y1="1855.5" x2="2316" y2="2394.1"/>
<line class="st0" x1="2151.2" y1="1856" x2="2315.5" y2="1856"/>
<line class="st0" x1="1624" y1="2010" x2="1624" y2="2345.5"/>
<line class="st0" x1="1333.4" y1="2074.7" x2="1333.4" y2="2142.2"/>
<line class="st0" x1="1840" y1="2108.5" x2="1840" y2="2233.6"/>
<line class="st0" x1="1531.4" y1="2109" x2="1840.7" y2="2109"/>
<line class="st0" x1="1531.4" y1="2108.5" x2="1531.4" y2="2142.7"/>
<line class="st0" x1="1370.2" y1="1607.2" x2="1370.2" y2="1655.9"/>
<line class="st0" x1="1096.1" y1="1326" x2="1159.8" y2="1326"/>
<line class="st0" x1="1582.5" y1="1371.3" x2="1612.3" y2="1371.3"/>
<line class="st0" x1="816.7" y1="1540.7" x2="1159.7" y2="1540.7"/>
<line class="st0" x1="1130.2" y1="1469.1" x2="1160" y2="1469.1"/>
<line class="st0" x1="1130.5" y1="1468.6" x2="1130.5" y2="1652.8"/>
<line class="st0" x1="1046.8" y1="1652.3" x2="1131" y2="1652.3"/>
<line class="st0" x1="1611.8" y1="1211.2" x2="1611.8" y2="1371.8"/>
<line class="st0" x1="1514.5" y1="1211.7" x2="1611.3" y2="1211.7"/>
<line class="st0" x1="2077.4" y1="565.3" x2="2077.4" y2="592.2"/>
<line class="st0" x1="1556.5" y1="870.2" x2="1866.9" y2="870.2"/>
<line class="st0" x1="1735.7" y1="836" x2="1867.6" y2="836"/>
<line class="st0" x1="1736.2" y1="621.6" x2="1736.2" y2="836"/>
<line class="st0" x1="1557" y1="621.6" x2="1557" y2="869.7"/>
<line class="st0" x1="2076.4" y1="917.3" x2="2076.4" y2="1003.1"/>
<line class="st0" x1="2290.3" y1="640.4" x2="2447.5" y2="640.4"/>
<line class="st0" x1="2447" y1="544.3" x2="2447" y2="640.9"/>
<line class="st0" x1="2997.5" y1="1357.6" x2="3050.4" y2="1357.6"/>
<line class="st0" x1="2996.5" y1="1387" x2="3132.8" y2="1387"/>
<line class="st0" x1="2997.5" y1="1416.3" x2="3051.4" y2="1416.3"/>
<line class="st0" x1="2785.2" y1="1465.3" x2="2785.2" y2="1536.6"/>
<line class="st0" x1="2784.2" y1="1226.4" x2="2784.2" y2="1294.1"/>
<line class="st0" x1="3051.9" y1="1415.8" x2="3051.9" y2="1615"/>
<line class="st0" x1="3050.9" y1="1226.4" x2="3050.9" y2="1358.1"/>
<line class="st0" x1="685.4" y1="2003.9" x2="739.2" y2="2003.9"/>
<line class="st0" x1="575" y1="2054.9" x2="738.7" y2="2054.9"/>
<line class="st0" x1="690.7" y1="2113.4" x2="739" y2="2113.4"/>
<line class="st0" x1="534.1" y1="2210.4" x2="738.7" y2="2210.4"/>
<line class="st0" x1="679.1" y1="2256.8" x2="738.7" y2="2256.8"/>
<line class="st0" x1="949.1" y1="2406.9" x2="949.1" y2="2482.7"/>
<line class="st0" x1="3208.7" y1="858.6" x2="3208.7" y2="898.4"/>
<line class="st0" x1="3207.7" y1="559.2" x2="3207.7" y2="604.4"/>
<line class="st0" x1="2800.7" y1="738.6" x2="2998.5" y2="738.6"/>
<line class="st0" x1="3420.9" y1="712" x2="3562.2" y2="712"/>
<line class="st0" x1="3420.9" y1="686.7" x2="3581.2" y2="686.7"/>
<line class="st0" x1="3207.8" y1="2303.9" x2="3207.8" y2="2331.4"/>
<line class="st0" x1="2803.5" y1="2220.5" x2="2998.5" y2="2220.5"/>
<line class="st0" x1="3421.2" y1="2154.3" x2="3602.3" y2="2154.3"/>
<line class="st0" x1="2912.8" y1="2044.1" x2="2998.8" y2="2044.1"/>
<line class="st0" x1="3420.9" y1="2075.2" x2="3499.5" y2="2075.2"/>
<line class="st0" x1="2803.3" y1="2220" x2="2803.3" y2="2264.5"/>
<rect x="1154.6" y="1288.1" class="st0" width="432.3" height="324.1"/>
<line class="st0" x1="3601.8" y1="2154.3" x2="3601.8" y2="2267.3"/>
<line class="st0" x1="950.1" y1="895.4" x2="950.1" y2="944.1"/>
<line class="st0" x1="949.6" y1="561.3" x2="949.6" y2="593.2"/>
<line class="st0" x1="1159.7" y1="843.1" x2="1221.4" y2="843.1"/>
<line class="st0" x1="1160.7" y1="728.8" x2="1214.5" y2="728.8"/>
<line class="st0" x1="707.5" y1="814.8" x2="737.3" y2="814.8"/>
<line class="st0" x1="1160.7" y1="643.4" x2="1214.5" y2="643.4"/>
<line class="st0" x1="2800.2" y1="738.1" x2="2800.2" y2="817"/>
<line class="st0" x1="3562.5" y1="711.5" x2="3562.5" y2="821.6"/>
<rect x="1861.8" y="584.7" class="st0" width="433.7" height="340.2"/>
<rect x="2569.6" y="1287.4" class="st0" width="433" height="183.3"/>
<rect x="733.3" y="1972.2" class="st0" width="433" height="439.8"/>
<rect x="2991.7" y="1974.1" class="st0" width="434.8" height="334.5"/>
<line class="st0" x1="3050.4" y1="1615.5" x2="3161.4" y2="1615.5"/>
<line class="st0" x1="3050.4" y1="1226.9" x2="3518.5" y2="1226.9"/>
<line class="st0" x1="3518" y1="1227.4" x2="3518" y2="1271.6"/>
<line class="st0" x1="2997.9" y1="722.6" x2="3419.9" y2="722.6"/>
<line class="st0" x1="2998.4" y1="784.6" x2="3420.5" y2="784.6"/>
<rect x="3503.1" y="454.1" class="st0" width="131.4" height="132"/>
<line class="st0" x1="2998.5" y1="2243.1" x2="3420.5" y2="2243.1"/>
<line class="st0" x1="1160.4" y1="1442.4" x2="1582.4" y2="1442.4"/>
<line class="st0" x1="1130.1" y1="1428.4" x2="1159.8" y2="1428.4"/>
<line class="st0" x1="1130.5" y1="1244.7" x2="1130.5" y2="1428.9"/>
<line class="st0" x1="1866.9" y1="2504.7" x2="2289.7" y2="2504.7"/>
<line class="st0" x1="3208.8" y1="1939.4" x2="3208.8" y2="1979.9"/>
<rect x="1283.2" y="770.3" class="st1" width="155.7" height="73.7"/>
<rect x="1283.2" y="770.3" class="st0" width="155.7" height="73.7"/>
<line class="st0" x1="1160.2" y1="785.9" x2="1282.7" y2="785.9"/>
<line class="st0" x1="1220.9" y1="842.8" x2="1220.9" y2="937.7"/>
<line class="st0" x1="684.7" y1="687" x2="737.8" y2="687"/>
<rect x="1190.7" y="938" class="st0" width="102.5" height="150.3"/>
<g>
	<circle class="st0" cx="543.8" cy="2054.4" r="30.7"/>
	
		<ellipse transform="matrix(0.3827 -0.9239 0.9239 0.3827 -1550.5146 1913.0354)" class="st0" cx="656.3" cy="2116.8" rx="34.9" ry="34.9"/>
	<path class="st0" d="M647.1,2042.2c20.9,0,37.8-16.9,37.8-37.8c0-20.9-16.9-37.8-37.8-37.8s-37.8,16.9-37.8,37.8
		C609.4,2025.3,626.3,2042.2,647.1,2042.2z"/>
</g>
<rect x="866.4" y="2482.7" class="st0" width="167.8" height="96.6"/>
<line class="st0" x1="534.6" y1="2209.9" x2="534.6" y2="2621.9"/>
<rect x="1215.2" y="613.1" class="st0" width="123.1" height="59.6"/>
<line class="st0" x1="708" y1="814.3" x2="708" y2="995"/>
<rect x="868.3" y="400.7" class="st0" width="160.2" height="160.2"/>
<rect x="2723.2" y="1204.6" class="st0" width="119.2" height="21.3"/>
<text transform="matrix(1 0 0 1 1031.9626 1539.8098)" class="st2 st3 st4"> </text>
<text transform="matrix(1 0 0 1 889.4509 1112.2576)" class="st2 st3 st4">A4</text>
<text transform="matrix(1 0 0 1 641.5227 1761.9299)" class="st2 st3 st4"> </text>
<rect x="2716.2" y="1537.1" class="st0" width="135.3" height="21.3"/>
<rect x="619.6" y="995.5" class="st0" width="161.6" height="21.3"/>
<rect x="1215.2" y="717.7" class="st0" width="84.7" height="21.3"/>
<rect x="3109.8" y="1917.6" class="st0" width="196.8" height="21.3"/>
<rect x="2023.7" y="2617.5" class="st0" width="93.3" height="21.3"/>
<line class="st0" x1="739.6" y1="2142.2" x2="1161.7" y2="2142.2"/>
<line class="st0" x1="739.2" y1="2084.6" x2="1161.3" y2="2084.6"/>
<line class="st0" x1="738.7" y1="2303.6" x2="1162" y2="2303.6"/>
<line class="st0" x1="2997.9" y1="2171.6" x2="3420.7" y2="2171.6"/>
<line class="st0" x1="2998.6" y1="2273" x2="3420.7" y2="2273"/>
<rect x="3404" y="2541.3" class="st0" width="114.4" height="21.3"/>
<rect x="2898.2" y="2545" class="st0" width="114.4" height="21.3"/>
<rect x="890.1" y="2612.8" class="st0" width="119.2" height="18.1"/>
<line class="st0" x1="534.1" y1="2621.9" x2="889.6" y2="2621.9"/>
<line class="st0" x1="679.1" y1="2333" x2="738.7" y2="2333"/>
<line class="st0" x1="652.6" y1="2287" x2="738.7" y2="2287"/>
<rect x="589.3" y="2248.2" class="st0" width="89.3" height="18.1"/>
<rect x="589.3" y="2277.5" class="st0" width="62.8" height="18.1"/>
<rect x="589.3" y="2323.4" class="st0" width="89.3" height="18.1"/>
<rect x="1083.6" y="1222.9" class="st0" width="93.3" height="21.3"/>
<text transform="matrix(1 0 0 1 1080.26 1722.9124)" class="st2 st3 st4"> </text>
<rect x="2849.8" y="760.6" class="st0" width="110.1" height="21.3"/>
<line class="st0" x1="3580.7" y1="586.6" x2="3580.7" y2="687.2"/>
<rect x="3153.4" y="898.9" class="st0" width="110.1" height="21.3"/>
<line class="st0" x1="2959.3" y1="770.8" x2="2997.5" y2="770.8"/>
<line class="st0" x1="2925.6" y1="808.4" x2="2997.5" y2="808.4"/>
<line class="st0" x1="2926.1" y1="1045.9" x2="3108.8" y2="1045.9"/>
<line class="st0" x1="2926.1" y1="808.1" x2="2926.1" y2="1046.4"/>
<line class="st0" x1="2998.1" y1="826.3" x2="3420.2" y2="826.3"/>
<line class="st0" x1="2853.9" y1="654.1" x2="2998.5" y2="654.1"/>
<line class="st0" x1="2854.4" y1="525.8" x2="2854.4" y2="653.6"/>
<line class="st0" x1="2944.6" y1="2188.6" x2="2997.9" y2="2188.6"/>
<line class="st0" x1="2945.1" y1="2189.1" x2="2945.1" y2="2544.5"/>
<line class="st0" x1="3420.6" y1="2258" x2="3456.2" y2="2258"/>
<line class="st0" x1="3456.2" y1="2257.5" x2="3456.2" y2="2540.8"/>
<rect x="1996.1" y="1067" class="st0" width="164.8" height="21.3"/>
<rect x="1996.1" y="1003.6" class="st0" width="161.6" height="21.3"/>
<line class="st0" x1="1867.6" y1="698.4" x2="2289.7" y2="698.4"/>
<line class="st0" x1="2289.7" y1="677.5" x2="2368.9" y2="677.5"/>
<line class="st0" x1="2369.4" y1="677" x2="2369.4" y2="1153.1"/>
<line class="st0" x1="2290.3" y1="755.8" x2="2329.3" y2="755.8"/>
<line class="st0" x1="2121.8" y1="1153.6" x2="2369.9" y2="1153.6"/>
<line class="st0" x1="2328.8" y1="756.3" x2="2328.8" y2="1077.6"/>
<line class="st0" x1="2161.4" y1="1077.1" x2="2329.3" y2="1077.1"/>
</svg>
