<?xml version="1.0" encoding="utf-8"?>
<!-- Generator: Adobe Illustrator 25.0.0, SVG Export Plug-In . SVG Version: 6.00 Build 0)  -->
<svg version="1.1" id="Layer_1" xmlns="http://www.w3.org/2000/svg" xmlns:xlink="http://www.w3.org/1999/xlink" x="0px" y="0px"
	 viewBox="0 0 1417.3 1417.3" style="enable-background:new 0 0 1417.3 1417.3;" xml:space="preserve">
<style type="text/css">
	.st0{fill:none;stroke:#FFFFFF;stroke-linecap:round;stroke-linejoin:round;stroke-miterlimit:10;}
	.st1{fill:none;stroke:#FFFFFF;stroke-miterlimit:10;}
	.st2{fill:none;stroke:#FFFFFF;stroke-width:0.5;stroke-linecap:round;stroke-linejoin:round;stroke-miterlimit:10;}
	.st3{fill:none;stroke:#FFFFFF;stroke-width:1;stroke-linecap:round;stroke-linejoin:round;stroke-miterlimit:9.9996;}
	.st4{fill:none;stroke:#FFFFFF;stroke-width:1;stroke-linecap:round;stroke-linejoin:round;stroke-miterlimit:10.0003;}
</style>
<g id="Layer_2_1_">
	<g>
		<polygon class="st0" points="1256,1305.9 211,1311 206.1,71.4 1248.1,64.7 		"/>
		<g>
			<circle class="st1" cx="733.8" cy="1272.7" r="13.3"/>
			<circle class="st0" cx="733.8" cy="1272.7" r="9.4"/>
			<path class="st2" d="M741.2,1272.7c0,4.1-3.3,7.3-7.3,7.3s-7.3-3.3-7.3-7.3c0-4.1,3.3-7.3,7.3-7.3S741.2,1268.7,741.2,1272.7z"/>
			<path class="st0" d="M248.4,960.5c0,7.4-6,13.3-13.3,13.3c-7.4,0-13.3-6-13.3-13.3s6-13.3,13.3-13.3
				C242.5,947.2,248.4,953.1,248.4,960.5z"/>
			<path class="st0" d="M244.5,960.5c0,5.2-4.2,9.4-9.4,9.4s-9.4-4.2-9.4-9.4s4.2-9.4,9.4-9.4S244.5,955.3,244.5,960.5z"/>
			<path class="st2" d="M242.4,960.5c0,4.1-3.3,7.3-7.3,7.3c-4.1,0-7.3-3.3-7.3-7.3s3.3-7.3,7.3-7.3
				C239.1,953.2,242.4,956.5,242.4,960.5z"/>
			<ellipse class="st3" cx="922.7" cy="684.1" rx="13.3" ry="13.3"/>
			<ellipse class="st4" cx="922.6" cy="684" rx="9.4" ry="9.4"/>
			<path class="st2" d="M930,684c0,4.1-3.3,7.3-7.3,7.3c-4.1,0-7.3-3.3-7.3-7.3s3.3-7.3,7.3-7.3S930,679.9,930,684z"/>
			<path class="st0" d="M1239.3,305.7c0,7.4-6,13.3-13.3,13.3c-7.4,0-13.3-6-13.3-13.3c0-7.4,6-13.3,13.3-13.3
				C1233.3,292.3,1239.3,298.3,1239.3,305.7z"/>
			<path class="st0" d="M1235.4,305.7c0,5.2-4.2,9.4-9.4,9.4c-5.2,0-9.4-4.2-9.4-9.4c0-5.2,4.2-9.4,9.4-9.4
				C1231.2,296.2,1235.4,300.5,1235.4,305.7z"/>
			<path class="st2" d="M1233.3,305.7c0,4.1-3.3,7.3-7.3,7.3c-4.1,0-7.3-3.3-7.3-7.3c0-4.1,3.3-7.3,7.3-7.3
				C1230,298.3,1233.3,301.6,1233.3,305.7z"/>
			
				<ellipse transform="matrix(0.2298 -0.9732 0.9732 0.2298 471.2296 779.1383)" class="st3" cx="727.9" cy="91.8" rx="13.3" ry="13.3"/>
			<path class="st0" d="M737.3,91.8c0,5.2-4.2,9.4-9.4,9.4s-9.4-4.2-9.4-9.4c0-5.2,4.2-9.4,9.4-9.4S737.3,86.6,737.3,91.8z"/>
			<path class="st2" d="M735.2,91.8c0,4.1-3.3,7.3-7.3,7.3c-4.1,0-7.3-3.3-7.3-7.3c0-4.1,3.3-7.3,7.3-7.3S735.2,87.8,735.2,91.8z"/>
		</g>
	</g>
</g>
</svg>
