<?xml version="1.0" encoding="utf-8"?>
<!-- Generator: Adobe Illustrator 25.0.0, SVG Export Plug-In . SVG Version: 6.00 Build 0)  -->
<svg version="1.1" xmlns="http://www.w3.org/2000/svg" xmlns:xlink="http://www.w3.org/1999/xlink" x="0px" y="0px"
	 viewBox="0 0 1417.3 1417.3" style="enable-background:new 0 0 1417.3 1417.3;" xml:space="preserve">
<style type="text/css">
	.st0{fill:none;stroke:#FFFFFF;stroke-linecap:round;stroke-linejoin:round;stroke-miterlimit:10;}
	.st1{fill:none;stroke:#FFFFFF;stroke-width:0.75;stroke-linecap:round;stroke-linejoin:round;stroke-miterlimit:10;}
	.st2{fill:none;stroke:#FFFFFF;stroke-miterlimit:10;}
	.st3{fill:none;stroke:#FFFFFF;stroke-width:0.5;stroke-linecap:round;stroke-linejoin:round;stroke-miterlimit:10;}
</style>
<g id="Layer_2">
	<g>
		<polygon class="st0" points="1256,1305.9 211,1311 206.1,71.4 1248.1,64.7 		"/>
		<polygon class="st0" points="998.2,700.3 376.9,703.4 372.1,80.5 994.8,76.3 		"/>
		<polyline class="st0" points="998,659.8 1069.6,659.3 1074.5,1282.5 449.4,1285.9 449.7,703.7 		"/>
		<polyline class="st1" points="372.6,385.7 373.8,900.2 449.6,900.2 		"/>
		<polyline class="st1" points="997.3,383.4 1085.3,383.4 1088,898.1 1071.4,898.3 		"/>
		<g>
			<circle class="st2" cx="733.8" cy="1272.7" r="13.3"/>
			<circle class="st0" cx="733.8" cy="1272.7" r="9.4"/>
			<path class="st3" d="M741.2,1272.7c0,4.1-3.3,7.3-7.3,7.3s-7.3-3.3-7.3-7.3c0-4.1,3.3-7.3,7.3-7.3S741.2,1268.7,741.2,1272.7z"/>
			<path class="st0" d="M248.4,960.5c0,7.4-6,13.3-13.3,13.3c-7.4,0-13.3-6-13.3-13.3s6-13.3,13.3-13.3
				C242.5,947.2,248.4,953.1,248.4,960.5z"/>
			<path class="st0" d="M244.5,960.5c0,5.2-4.2,9.4-9.4,9.4c-5.2,0-9.4-4.2-9.4-9.4c0-5.2,4.2-9.4,9.4-9.4
				C240.3,951.1,244.5,955.3,244.5,960.5z"/>
			<path class="st3" d="M242.4,960.5c0,4.1-3.3,7.3-7.3,7.3c-4.1,0-7.3-3.3-7.3-7.3c0-4,3.3-7.3,7.3-7.3
				C239.1,953.2,242.4,956.5,242.4,960.5z"/>
			
				<ellipse transform="matrix(0.2298 -0.9732 0.9732 0.2298 44.9696 1424.8107)" class="st0" cx="922.6" cy="684" rx="13.3" ry="13.3"/>
			
				<ellipse transform="matrix(0.9239 -0.3827 0.3827 0.9239 -191.5209 405.1472)" class="st0" cx="922.6" cy="684" rx="9.4" ry="9.4"/>
			<path class="st3" d="M930,684c0,4.1-3.3,7.3-7.3,7.3c-4.1,0-7.3-3.3-7.3-7.3s3.3-7.3,7.3-7.3C926.7,676.7,930,679.9,930,684z"/>
			<path class="st0" d="M1239.3,305.7c0,7.4-6,13.3-13.3,13.3c-7.4,0-13.3-6-13.3-13.3c0-7.4,6-13.3,13.3-13.3
				C1233.3,292.3,1239.3,298.3,1239.3,305.7z"/>
			<path class="st0" d="M1235.4,305.7c0,5.2-4.2,9.4-9.4,9.4c-5.2,0-9.4-4.2-9.4-9.4c0-5.2,4.2-9.4,9.4-9.4
				C1231.2,296.2,1235.4,300.5,1235.4,305.7z"/>
			<path class="st3" d="M1233.3,305.7c0,4.1-3.3,7.3-7.3,7.3c-4.1,0-7.3-3.3-7.3-7.3c0-4.1,3.3-7.3,7.3-7.3
				C1230,298.3,1233.3,301.6,1233.3,305.7z"/>
			
				<ellipse transform="matrix(0.2298 -0.9732 0.9732 0.2298 471.2743 779.1363)" class="st0" cx="727.9" cy="91.8" rx="13.3" ry="13.3"/>
			<path class="st0" d="M737.3,91.8c0,5.2-4.2,9.4-9.4,9.4c-5.2,0-9.4-4.2-9.4-9.4c0-5.2,4.2-9.4,9.4-9.4
				C733.1,82.4,737.3,86.6,737.3,91.8z"/>
			<path class="st3" d="M735.2,91.8c0,4.1-3.3,7.3-7.3,7.3c-4.1,0-7.3-3.3-7.3-7.3c0-4.1,3.3-7.3,7.3-7.3
				C731.9,84.5,735.2,87.8,735.2,91.8z"/>
			<path class="st1" d="M867.2,337.5"/>
			<path class="st1" d="M867.2,345.5"/>
			<polyline class="st1" points="372.6,385.7 374.1,385.7 374.1,385.7 			"/>
			<path class="st1" d="M867.2,393.8"/>
			<path class="st1" d="M867.2,401.8"/>
		</g>
	</g>
</g>
<g id="Layer_3">
	<g>
		<g>
			<path class="st2" d="M865.5,409.5c-38.6,0-77.2,0-115.8,0c-1.2,4.2-10.1,4-10.9,0.1c-12.7,0-25.5,0-38.5,0c0,2.9,0,5.8,0,8.6
				c-0.2,0-0.3,0-0.6,0c-0.1-2.9-0.1-5.6-0.1-8.6c-7,0-13.9,0-21.1,0c0,2.7,0,5.6,0,8.3c-1.6,1.3-0.4-7.1-0.8-8.3
				c-36.8,0-73.3,0-109.4,0c-1.3,1-2.2,2-3.2,2.8c-1.2,0-2.4,0-3.9,0c-0.3-0.8-0.7-1.7-1.1-2.8c-27.8,0-55.9,0-84.2,0
				c0,2.8,0,5.6,0,8.4c-1.6,0.9-0.4-6.9-0.8-8.1c-6.6-1-14.1,0-21.2-0.3c0,2.9,0,5.8,0,8.7c-1-2.8-0.5-5.6-0.8-8.6
				c-59.7,0-119.4,0-178.8,0c0.1-1.5,0.6-2.8,0.2-3.8c-0.8-2.4,1.3-5.5-0.6-7.5c1.1-0.7,1-4.9,0.1-5.9c1.6-2.3-0.3-4.6,0.6-7.1
				c-0.1-12.2,0.5-25.1-0.5-37.1c0.8-1,0.4-2.1,0.5-3.1c0.1-0.9,0.4-2-0.6-2.7c0.7-0.6,0.8-1.4,0.7-2.2c-0.1-1.3,0.6-2.7-0.7-3.7
				c1.5-1.7,0.6-4.1,0.2-6c3.6,0,7.3,0,11.1,0c0.7-3.8,0.6-7.8,4.3-10.2c1.7,2.9,4.3,6.5,2.6,9.9c2.4,0,4.8,0,7.1,0
				c0-0.1,0.1-0.2,0.1-0.3c-3.4-0.9,1.2-3.2,0-5.9c0.1,0,0.3,0,0.5-0.1c0.1,0.8,0.2,1.7,0.3,2.8c2.4,0.7,2.6-1.7,1.4-3.4
				c0.4-0.1,0.7-0.1,1-0.1c1.1,2.5,1.3,4.5,0.2,7.1c38,0,75.8,0,113.8,0c0.1-0.6,0.2-1.3,0.3-2c0.1,0,0.3,0,0.4,0
				c0.1,0.6,0.2,1.3,0.3,2c6.9,0,13.7,0,20.9,0c0.1-0.6,0.3-1.3,0.6-2.9c0.3,1.5,0.3,2.2,0.5,2.9c6.9,0,13.8,0,20.9,0
				c0-1.6,0-3.2,0-4.8c0.2,0,0.3,0,0.6-0.1c0.2,1.7,0.3,3,0.2,4.8c7.2,0,14.4,0,21.9,0c0-1.6,0-3.2,0-4.9c0.1,0,0.3,0,0.5,0
				c0,1.6,0,3.1,0,4.9c9.8,0,19.4,0,29.3,0c0.3-3.4-0.6-7.3,0.7-10.8c0,3.6,0,7.1,0,10.8c12.7,0,25.2,0,37.9,0c0-2.5,0-5.2,0-8.2
				c1.9,3.1,3.5,5.7,5.1,8.3c3.4,0,6.4,0.4,9.4-0.1c11.5-1.7,22.7,0.1,34.4,0.1c0.1-2.7,0.1-5.1,0.1-8c6.6,0.8,12.9,0.9,19.6,1.6
				c0,2,0,4,0,6.2c14.1,0,28.2,0,42.5,0c0-3.1,0-6.2,0-9.2c1.3,3,0.4,6,0.7,9.2c14.5,0,28.9,0,43.6,0c0-1.5,0-3.1,0-5.1
				c1.5,0.5,2.8-0.4,4,0.7c5.1,0.3,10.4,0.2,15.7,1.1c0,1,0,2,0,3.2c6.6,0,13.1,0,19.7,0c0.1-0.6,0.2-1.3,0.3-2c0.1,0,0.3,0,0.4,0
				c0.1,0.6,0.2,1.3,0.3,2c31.4,0,62.8,0,94.5,0c0-1.5,0-3.1,0-5c6.9,0.3,12.9-1.4,19.7-1.3c0,2,0,4,0,6.3c1.5,0.1,2.9,0.1,4.1,0.2
				c-0.8,3.4,0.4,6.6-0.4,9.9c-0.2,1,0.9,1.8,0.1,3.1c-0.6,0.9-0.5,2.6,0,3.5c0.1,11.6-0.3,23.7-0.1,35.5c0,1.2-0.3,2.6,0.1,3.6
				c0.6,1.2-0.2,2-0.1,3.1c0.1,1.2,0.4,2.4,0.4,3.6c0,1.1-0.1,2.3-0.4,3.4c-0.2,1,0.8,1.8,0.1,3.1c-0.6,0.9-0.5,2.5,0,3.5
				c0.6,1.2-0.2,2-0.1,3.1C865.2,407,865.3,408.1,865.5,409.5z M661.5,337.5c-1.8,1-6.7,1.2-5.5,4.3c3.2-0.6,7.6-2.4,5.6-4.3
				c0.1,0.1,0.1,0.1,0.1,0.1c0.2-0.1,0.4-0.3,0.6-0.5c-0.1-0.1-0.1-0.1-0.2-0.2C662,337.2,661.8,337.4,661.5,337.5z M739.9,350.7
				c-0.4-0.7-0.9-1.4-1.3-2c-2.6,0-5.1,0-7.6,0c0,1.4,0,2.7,0,4.1c5.1,0,10.1,0,15.3,0c-0.1-1.3-0.1-2.4-0.2-4
				c-2.2,2-3.6,2.2-6.4,1.5c1.3-0.4,2.4-0.8,3.6-1.2c0-0.1-0.1-0.2-0.1-0.3c-1.2,0-2.4,0-3.6,0C739.7,349.1,739.7,349.4,739.9,350.7
				z M287.5,337c0.5,1.9,0.8,3.5,1.2,5c7.4,0,14.7,0,21.1,0c1-1,1.7-1.7,2.3-2.3c-1.4,0-3.1,0-5.1,0c0.8-1.1,1.3-1.9,1.8-2.7
				c-2.1,0-3.8,0-5.6,0c-0.2,0.6-0.3,0.9-0.5,1.5c-0.3-0.6-0.6-1.1-0.7-1.5c-0.7,0-1.3,0-1.7,0c-0.1,0.8-0.2,1.4-0.3,2
				c-0.1,0-0.3,0-0.3,0c-0.1-0.7-0.2-1.3-0.3-2c-3.8,0-7.6,0-11.8,5c0.7-1.7,0-3-0.9-4.3c-0.6,1-4.3,3.4-3.7,4.3
				C284.4,341.9,285.9,341.9,287.5,337z M317.4,342c11.2-0.1,22.4,0.1,33.6-0.1c0-1.8,0-3.4,0-4.8c-12,0-23.8,0-35.5,0
				c0,0.8,0,1.3,0,1.8c0.6,0.2,1,0.3,1.5,0.5c-0.6,0.3-1.2,0.6-2.1,1.2C315.9,341.2,316.5,341.5,317.4,342z M795.5,344.6
				c-0.7-0.9-1.3-1.7-1.3-1.7c-16.3,0-31.7,0-47,0c0,1.7,0,3.2,0,4.8c15,0,30.1,0,45.3,0c-0.8-2.7,1.3-2.6,2.8-4.9
				c-0.3,2.1,2.3,2.2,2.1,4.1c-0.9,0.1-1.9,0.2-2.9,0.3c0,0.1,0,0.3,0,0.4c13.3,0,26.6,0,40,0c2-2.3,4.3-3.7,7.3-2.2
				c0-1,0-1.8,0-2.7C826.1,342.8,810.8,342.8,795.5,344.6z M507.1,405.9c1.2-0.3,2.4-0.7,3.6-1c-1.3-0.1-3.8-1-4.3,0.3
				c-2.7-1.3-5.8-0.5-8.7-0.7c0,1.6,0,2.9,0,4.3c21.3,0,42.5,0,64.4,0c0.4-0.5,1.2-1.3,2-2.2c1,0,2.2,0,3.6,0
				c-0.1-0.8-0.1-1.4-0.1-2.1c-18.2,0-36.2,0-54.5,0c-0.5,0.6-1.2,1.5-1.7,2.2C509.7,406.4,507.9,407.3,507.1,405.9z M512.9,345
				c0.4,0.9,0.8,1.8,1.3,2.8c15.5,0,31.1,0,46.6,0c1-1,1.9-1.9,2.9-2.9c1.2,0,2.4,0,4,0c-0.1-0.8-0.1-1.5-0.1-2.1
				c-5.3,0-10.4,0-15.3,0c-2.5,2-4.1,3.3-7.3,2.8c-0.3-0.9-0.6-1.9-1-2.7c-15.4,0-30.8,0-46.2,0c0,1.7,0,3.4,0,5c2.9,0,5.6,0,8.3,0
				c1.5-2.9,1.8-3,6.8-2.1c-2.1-0.4-3.4,1-5.3,2c2.1,0,3.7,0,5.3,0C512.9,346.8,512.9,346.2,512.9,345z M513.4,348.5
				c-3.6,2.7-3.1,2.4-7,1.7c0.1,0.9,0.1,1.8,0.2,2.5c39.3,0,78.2,0,117.1,0c0-1.5,0-2.7,0-4.1c-4.2-0.8-6.2,2.7-10,2
				c-0.4-0.7-0.8-1.4-1.3-2c-7.8,0-15.5,0-23,0c-2.1,1.7-3.7,2.4-6.3,2c-0.4-0.7-0.8-1.4-1.2-2.1c-4.6,0-9.2,0-13.6,0
				c-2.4,2-4.3,2.4-7.1,2.1c-0.4-0.7-0.8-1.4-1.2-2.1c-15.5,0-31.1,0-52.7,1.5c1-0.3,2.2-0.7,4.1-1.3c-2.3,0-3.6,0-5.2,0
				C506.7,349.2,507,349.6,513.4,348.5z M747.3,336.2c14-0.1,28.1,0.1,42.1-0.1c1.7-0.1,3.5,0.8,5-0.7c3.1,1.6,6.9,0.3,10.3,0.7
				c12.3,0,24.7,0,37,0c0-1.8,0-3.4,0-4.9c-31.6,0-63.1,0-94.7,0C747.2,333,746.6,334.8,747.3,336.2z M742,392.9
				c-0.3,2.1,2.3,2.2,2.1,4.1c-0.9,0.1-1.9,0.2-2.9,0.3c3.4,0.8,120.4,0.7,123.1,0.2c0-1.5,0-3.1,0-4.7c-40.8,0-81.4,0-122,1.7
				c-0.7-0.8-1.2-1.6-1.3-1.7c-3.9,0-6.9,0-9.9,0c0,1.7,0,3.2,0,4.8c2.7,0,5.2,0,8,0C738.5,395.2,740.3,395.1,742,392.9z
				 M291.5,358.8c-0.6-1.7-1-3.4-1.2-5.1c-5,0-10,0-15,0c0,11.1,0,22.2,0,33.2c8,0,15.9,0,23.7,0c0.2-0.6,0.3-1,0.5-1.5
				c0.4,1.6,1.3,1.5,2.4,1.5c0.1-0.8,0.2-1.4,0.3-2c0.1,0,0.3,0,0.3,0c0.1,0.7,0.2,1.3,0.3,2c29.2,0,58.3,0,87.3,0
				c0-11.1,0-22.1,0-33.2c-0.9,0-1.7,0-2.5,0c-1,4.4-2.7,5.8-7.2,5.7c-1.4-0.8-1-2-1-3.4c0.9-0.7,1.8-1.4,2.9-2.2c-5,0-9.7,0-14.3,0
				c-0.6,4.8-3.4,6-7.6,5.5c-0.3-0.8-0.6-1.5-1-2.5c1.2-0.9,2.2-1.8,3.4-2.7c-2.3-0.2-4.4-1-6.4,0.1c-1.4-1-3-0.4-4.8-0.6
				c0,1.3,0,2.4,0,3.5c-2.4,2.5-8.3,3.8-7.1-1.3c0.8-0.7,1.7-1.4,2.7-2.2c-18.8,0-37.3,0-56,0C290.7,355.4,293.2,357,291.5,358.8z
				 M741.2,385.5c0.6,0.5,1.3,1,1.7,1.3c8.5,0,16.9,0,25.3,0c0-5.3,0-10.5,0-15.7c6.7-0.7,12.8-0.5,19.7-1.8c0,6.2,0,11.9,0,17.5
				c4,0,7.7,0,11.5,0c0.3-4.4-0.1-8.7,0.7-12.9c0,4.3,0,8.6,0,12.9c21.6,0,42.9,0,64.1,0c0-11.1,0-22.1,0-33c-39.2,0-78.2,0-117.1,0
				c0,1.7,0,3.3,0,4.8c0.8,0.1,1.4,0.2,2,0.3c0,0.1,0,0.2,0,0.3c-0.7,0.1-1.3,0.2-1.9,0.3c-0.5,3.1-1.7,4.5-3.8,5.7
				c-1.3-0.2-2.9,0.5-3.8-0.6c2.7-0.3,4.8-1.5,6.6-3.4c0-0.6-0.1-1.2-0.1-1.8c-2.4,1.1-4.5,2.1-6.5,3c0,1,0,1.5,0,2.2
				c-1.5-0.6-0.4-1.8-0.7-2.7c0.9-0.8,1.8-1.5,3.1-2.5c-2.1,0-3.7,0-5.3,0c0-0.1,0-0.3,0-0.5c3.1,0,6.2,0,9.3,0c0-1.9,0-3.5,0-5.1
				c-5.1,0-10,0-15,0c0,11.1,0,22.2,0,33.3c3.4-0.3,7,0.6,10.1-0.3C741.2,386.3,741.2,386,741.2,385.5z M623.6,386.9
				c0-11.3,0-22.3,0-33.2c-36.7,0-73.3,0-110.3,0c1.7,0.7,2.7,1.5,3.4,2.7c-1.6,4.1-5.6,2.5-9,3c-0.2-0.5-0.6-1-0.9-1.7
				c-0.1,0.1-0.3,0.1-0.5,0.3c0,2.4,0,4.7,0,7.1c-0.8-3.8-0.5-7.7-0.8-11.5c-2.8,0-5.3,0-7.8,0c-0.4,9.3-0.3,30.3,0.2,33.2
				c5,0,9.9,0,14.8,0c0.1-1,0.2-1.9,0.3-2.8c0.1,0,0.3,0,0.5,0c0.1,0.9,0.1,1.8,0.1,2.7c29,0,57.8,0,86.6,0c0.1-1,0.2-1.9,0.3-2.7
				c0.1,0,0.3,0,0.5,0.1c0,0.9,0,1.8,0,2.7C608.8,386.9,616.1,386.9,623.6,386.9z M655.8,369.4c-0.2,0-0.4,0-0.6,0.1
				c0-5.2,0-10.5,0-15.8c-5.2,0-10.1,0-14.6,0c-1.3,1-2.1,1.7-3.1,2.6c1.9,0.1,2.7,0.8,3.5,2.4c0.6,0.1,1.2,0.1,1.7,0.1
				c0,0.1,0,0.3,0,0.4c-2.8-0.1-3.8,1.7-5.7,3.2c-1.1,0-2.4,0-3.8,0c-0.2,4.4,0.1,8.7-0.7,12.9c0-5.2,0-10.5,0-15.7
				c-0.9-0.2-1.5-0.4-2.2-0.6c0.1-0.1,0.1-0.1,0.3-0.3c0.9,0,2,0,3.1,0c-0.1-0.2-0.3-0.3-0.4-0.6c0.7-0.4,1.5-0.8,2.8-1.5
				c-2.8,0.1-4-0.8-3.7-2.9c-2.7,0-5.3,0-7.8,0c0,11.1,0,22.1,0,33.2c5.2-0.1,10.1,0.1,15.2-0.1c0.2-1.7-0.8-5,0.8-5.7
				c0,2,0,3.9,0,5.7c30,0,59.7,0,89.5,0c0-11.1,0-22.2,0-33.3c-7.9,0.4-16.5-0.8-23.8,0.4c0.4,0.4,0.8,0.8,1.5,1.5
				c-1.3,1.3-2.6,2.7-3.8,4c-1.4,0-2.4,0-3.6,0c-0.2,4.4,0.1,8.7-0.6,12.9c0-5.5,0-11,0-16.6c0.8-0.6,1.7-1.3,2.9-2.1
				c-13.4,0-26.7,0-40,0c-1.1,3.6-4.3,2.4-6.9,2.9C655.8,361,655.8,365.2,655.8,369.4z M397.1,386.9c33.4,0,66.6,0,99.8,0
				c0-11.1,0-22,0-33.1c-4.4,0-8.7,0-13,0c-0.1,1-0.1,1.7-0.1,2.7c-2.2,2-4.3,3.4-7,2.9c-0.3-0.3-0.6-0.6-0.9-0.9c0-0.7,0-1.4,0-2.4
				c0.8-0.6,1.8-1.4,2.9-2.2c-5.8,0-11.5,0-17.4,0c-0.3,2.9-0.3,2.9-3.6,5.6c-1.3,0-2.4,0-3.6,0c-0.4-0.9-0.8-1.7-1.3-3.1
				c0.9-0.9,1.9-1.9,2.7-2.7c-5,0.2-11-0.4-16,0.2c0,1.7,0,3.2,0,4.8c0.8,0.1,1.4,0.2,2,0.3c0,0.1,0,0.3,0,0.4
				c-0.7,0.1-1.3,0.2-2,0.3c0.1,5.2-9.4,8.7-8,2.2c0.8-0.7,1.7-1.4,3-2.4c-2.1,0-3.7,0-5.3,0c0-0.1,0-0.3,0-0.4
				c0.7-0.1,1.5-0.3,2.2-0.4c-0.3-0.4-0.6-0.6-0.6-0.7c0.6-1.8,1.7-3.1,3.8-4c-6,0-11.5,0-16.9,0c0,1.7,0,3.4,0,4.9
				c0.8,0.1,1.3,0.2,2,0.3c0,0.1,0,0.2,0,0.3c-0.7,0.1-1.3,0.2-2,0.3c-0.4,8.8-14.2,5.9-5.3,0.1c-0.1-0.1-0.1-0.3-0.1-0.5
				c-1.8,0-3.6,0-5.5,0c0-0.1,0-0.2,0-0.3c0.9-0.1,1.8-0.3,2.9-0.4c-0.3-0.4-0.5-0.7-0.8-1c1.2-1.3,2.3-2.4,3.5-3.6
				c-4.9,0-9.9,0-15,0C397.1,364.8,397.1,375.8,397.1,386.9z M731,403.6c44.4,0,88.9,0,133.4,0c-0.1-1.7,0.1-3.4-0.2-4.8
				c-41.1,0-82.1,0-123.1,0c0.2,1,0.4,1.8,0.7,3.1c-1.4-1.4-2.3-2.3-3.1-3.1c-2.6,0-5.1,0-7.7,0C731,400.4,731,402,731,403.6z
				 M864.3,404.6c-44.4,0-88.9,0-133.2,0c0,1.5,0,2.9,0,4.2c2.7,0,5,0,7.2,0c3.5-3.4,9.2-2.5,11.1-0.1c38.3,0,76.6,0,114.9,0
				C864.3,407.2,864.3,406,864.3,404.6z M747.2,348.5c0,1.4,0,2.7,0,4.2c39,0,78.1,0,117.1,0c0-1.4,0-2.7,0-4.1
				c-7.7,0-15.3,0-22.7,0c-2,1.7-3.6,2.3-6.2,2c-0.4-0.7-0.8-1.4-1.1-2c-13.3,0-26.5,0-39.9,0c0.3,1,0.6,1.7,1,2.7
				c-1.1-1.1-2.1-2.1-2.7-2.8C777,348.5,762.2,348.5,747.2,348.5z M315.5,336.1c25,0,50,0,75,0c-0.1-1.7,0.1-3.4-0.2-4.8
				c-29.2,0-58.2,0-87.5,0c1,1.9,0.8,2.9,0,4.9c2.3,0,4.3,0,6.4,0c0.4-1.4,0.8-2.8,1.3-4.2c1.3,0,2.7,0,4.2,0
				c-1.2,1.5-2,2.6-2.9,4.1c0.1,0.1,0.2,0.2,0.3,0.3c0.9-0.6,1.8-1.1,2.9-1.8C315.2,335.2,315.3,335.6,315.5,336.1z M390.4,398.6
				c-25.3,0-50.4,0-75.4,0c-0.6,1.1-4.5,4.3-3.6,5.2c1.7-0.4,2.3-2.2,3.8-3c0.1,1.1,0.1,2,0.2,2.8c25.1,0,50,0,74.9,0
				C390.4,402,390.4,400.4,390.4,398.6z M600.3,387.8c-28.9,0-57.7,0-86.5,0c0,1.5,0,2.9,0,4.1c18,0,35.8,0,53.6,0
				c0.1-1,0.2-1.9,0.3-2.8c0.1,0,0.3,0,0.4,0c0.1,0.9,0.1,1.8,0.2,2.7c10.7,0,21.3,0,31.9,0C600.3,390.5,600.3,389.2,600.3,387.8z
				 M390.4,393c-25.2,0-50,0-74.9,0c0,0.7,0,1.3,0,1.8c0.5,0.2,0.9,0.3,1.6,0.6c-0.8,0.3-1.3,0.4-1.9,0.6c0.4,0.7,0.8,1.3,1.1,1.7
				c2.9,0,5.7,0,8.4,0c0.1-0.8,0.2-1.4,0.3-2c2.2,0,4.2,0,6.2,0c0.1,0.8,0.3,1.4,0.3,2c19.7,0,39.2,0,58.8,0
				C390.4,396.2,390.4,394.6,390.4,393z M655.5,352.9c1.6-2,3.6-2.6,6.6-1.8c-1.6,0.6-2.8,1-4,1.5c20.2,0.6,40.3,0.2,60.5,0.3
				c-0.6-2.2,1.3-2.8,2.1-4.2c-26.8,0-53.5,0-80,0c0,1.5,0,2.9,0,4.2C645.8,352.9,650.6,352.9,655.5,352.9z M390.4,387.8
				c-25.3,0-50.3,0-75.6,0c-1,1.3-2,2.7-3,4.1c0.1,0.1,0.2,0.2,0.3,0.3c0.9-0.6,1.8-1.2,2.8-1.7c0.3,0.7,0.6,1.2,0.7,1.5
				c25,0,49.8,0,74.7,0C390.4,390.6,390.4,389.3,390.4,387.8z M390.3,404.6c-24.9,0.6-51-1-75.1,0.6c0.5,0.4,1,0.8,1.5,1.2
				c-0.5,0.2-1,0.4-1.7,0.7c0.7,0.8,1.1,1.3,1.4,1.5c24.9,0,49.5,0,74.1,0C390.3,407.2,390.3,406,390.3,404.6z M730.2,393
				c-22.3,0-44.6,0-66.8,0c0,1.7,0,3.4,0,5c4.8,0,9.4,0,14.1,0c1.7-2,3.7-3.5,6.9-2.7c0.6,0.8,1.3,1.7,2,2.7c4.2,0,8.6,0,13,0
				c1.7-2,3.8-3.5,6.9-2.7c0.6,0.8,1.3,1.7,1.9,2.6c7.3,0,14.7,0,22.1,0C730.2,396.1,730.2,394.6,730.2,393z M700.8,347.7
				c-1.6-1-1.1-2.2-1.2-3.6c0.3-0.2,1-0.6,2.2-1.3c-20.9,0-40.9,0-61.1,0c0,1.7,0,3.3,0,4.9C660.6,347.7,680.4,347.7,700.8,347.7z
				 M496.8,393c-21.6,0-43.2,0-64.9,0c0.1,1.7-0.1,3.4,0.2,5c7.3,0,14.3,0,21.3,0c0.9-0.9,1.9-1.9,2.8-2.8c1.3,0,2.6,0,4.1,0
				c0.3,1,0.7,1.9,1.1,2.8c4.6,0,9.2,0,13.9,0c1.7-2,3.8-3.5,6.9-2.7c0.6,0.8,1.3,1.7,1.9,2.6c4.2,0,8.4,0,12.7,0
				C496.8,396.1,496.8,394.6,496.8,393z M663.2,392c22.5,0,44.6,0,66.8,0c0-1.5,0-2.9,0-4.1c-22.4,0-44.6,0-66.8,0
				C663.2,389.2,663.2,390.6,663.2,392z M864.3,387.8c-21.3,0-42.7,0-63.7,0c-0.6,1.5-1.1,2.8-1.6,4.1c21.8,0,43.6,0,65.4,0
				C864.3,390.6,864.3,389.2,864.3,387.8z M513.8,403.6c18.1,0,36,0,53.8,0c0-1.7,0-3.2,0-4.8c-18,0-35.9,0-53.8,0
				C513.8,400.4,513.8,402,513.8,403.6z M513.8,397.8c18.1,0,36,0,53.8,0c0-1.7,0-3.2,0-4.8c-18,0-35.9,0-53.8,0
				C513.8,394.6,513.8,396.2,513.8,397.8z M437,391.6c0.1,0.1,0.2,0.2,0.3,0.3c19.8,0,39.7,0,59.5,0c0-1.5,0-2.9,0-4.1
				c-19.5,0-38.7,0-58.1,0c-0.1,0.9-0.1,1.7-0.2,3.3C438.4,391.1,437.7,391.4,437,391.6z M551.5,337c-12.9,0-25.7,0-37.8,0
				c-1.4,1.2-2.4,2-3.4,2.7c-1.3,0-2.5,0-4.1,0c-0.3-0.9-0.6-1.8-1-2.8c-2.5,0-5,0-7.6,0c0,1.7,0,3.4,0,5c15.7,0,31.3,0,46.7,0
				c1.2-0.8,2.2-1.5,3.4-2.2c1.1,0.1,2.4,0.3,3.7,0.5C551.5,339.2,551.5,338.2,551.5,337z M794.6,337.1c-16,0-31.8,0-47.6,0
				c0,1.7,0,3.2,0,4.8c15,0,30,0,44.7,0C792.8,340.2,793.7,338.8,794.6,337.1z M841.7,337c-15.5,0-30.6,0-46.6,0
				c1.2,0.7,1.8,1,2.2,1.3c-0.4,0.9-0.8,1.5-1,2.1c-0.2,0.6-1.4,0.6-1,1.5c15.5,0,30.9,0,46.4,0C841.7,340.3,841.7,338.7,841.7,337z
				 M623.6,408.8c0-1.4,0-2.7,0-4.3c-7.6,0-15.2,0-22.7,0c-2,1.6-3.6,2.3-6.2,2c-0.4-0.7-0.8-1.4-1.1-2c-8.4,0-16.7,0-25,0
				c0,1.5,0,2.9,0,4.3C587,408.8,605.2,408.8,623.6,408.8z M661,341.6c0,0.1,0.1,0.2,0.1,0.3c15.2,0,30.4,0,45.6,0
				c0-1.7,0-3.4,0-4.9c-14.6,0-29,0-43.2,0c-0.4,1.5-0.8,2.9-1.1,4.1C661.7,341.3,661.3,341.5,661,341.6z M663.2,336.1
				c14.7,0,29.1,0,43.5,0c0-1.7,0-3.4,0-4.9c-14.6,0-29,0-43.5,0C663.2,332.8,663.2,334.4,663.2,336.1z M787,373.5
				c-3.1-1.1-6.1,0.7-9.1,0.4c-3.1-0.3-6,0.6-9,1c0,4.1,0,8,0,11.9c6.1,0,12.1,0,18,0c0-3.1,0-6.2,0-9.1c-2.2-0.4-4.4,0.1-6.3-0.3
				c0-1,0-1.9,0-2.7C782.9,374.5,785.2,375.2,787,373.5z M662.4,331.2c-12.8,0-25.3,0-37.6,0c0,1.7,0,3.4,0,4.9c5.1,0,10.1,0,15,0
				c0.1-1,0.1-1.9,0.3-2.8c0.1,0,0.3,0,0.4,0c0.1,1,0.2,2,0.3,2.8c7.3,0,14.5,0,21.7,0C662.4,334.5,662.4,332.9,662.4,331.2z
				 M513.8,336.1c12.8,0,25.3,0,37.9,0c-0.2-1.7,0.1-3.4-0.2-4.8c-12.7,0-25.2,0-37.7,0C513.8,332.9,513.8,334.5,513.8,336.1z
				 M600.4,393c-10.8,0-21.3,0-31.8,0c0,1.7,0,3.4,0,4.8c10.7,0,21.2,0,31.8,0C600.4,396.2,600.4,394.6,600.4,393z M315.4,349.7
				c0.5,0.2,0.9,0.3,1.5,0.6c-0.8,0.3-1.3,0.5-2,0.8c0.7,0.8,1.2,1.3,1.4,1.5c11.8,0,23.2,0,34.7,0c0-1.4,0-2.7,0-4.1
				c-11.9,0-23.7,0-35.5,0C315.4,349.1,315.4,349.4,315.4,349.7z M600.4,398.8c-10.6,0-21.3,0-31.9,0c0,1.7,0,3.2,0,4.8
				c8.4,0,16.8,0,25,0c2.2-1.7,3.9-3.4,7-2.9C600.4,400,600.4,399.5,600.4,398.8z M279.7,404.6c-1.6,0-3,0-4.3,0c0,1.5,0,2.9,0,4.1
				c12,0,23.7,0,35.5,0c0.3-0.6,0.6-1.2,1-2.1c-1.8,0-3.2,0-4.9,0c0.4-0.9,0.6-1.5,0.9-2c-8.5,0-16.8,0-24.7,0
				c-1.7,0.6-2.7,1.9-4.4,1.1C279.2,405.3,279.4,405,279.7,404.6z M730.2,398.8c-8.2,0-16,0-23.4,0c-2.2,1.7-3.8,2.2-6.4,2.2
				c0,1,0,1.7,0,2.6c9.9,0,19.8,0,29.7,0C730.2,402,730.2,400.4,730.2,398.8z M624.6,408.9c10.4-0.1,20.4-0.3,30.4-0.4
				c0-0.3-0.3-0.6-0.5-0.7c0.3-0.6,0.6-1.2,0.8-1.8c0.2-0.6,1.3-0.6,1-1.5c-10.6,0-21.2,0-31.8,0C624.6,406,624.6,407.2,624.6,408.9
				z M730.2,404.6c-10.1,0-19.9,0-29.7,0c0,1.5,0,2.9,0,4.1c10,0,19.8,0,29.7,0C730.2,407.3,730.2,406,730.2,404.6z M662.3,403.6
				c0-1.7,0-3.3,0-4.8c-7.3,0-14.5,0-21.5,0c-0.8,2.8-1.4,3.4-3.6,4.8C645.9,403.6,654,403.6,662.3,403.6z M619.4,342.7
				c-6.1,0-12,0-17.6,0c-2.4,2-4,3.3-7.1,2.8c-0.3-1-0.7-1.9-1-2.7c-1.1,0-2.2,0-3.2,0c0,1.7,0,3.2,0,4.8c7.4,0,14.8,0,22,0
				c2.2-1.7,3.9-3.4,7-2.9C619.4,344.1,619.4,343.6,619.4,342.7z M623.7,393c-7.5,0-15,0-22.6,0c0.3,1.7-0.1,3.4,0.3,4.8
				c7.6,0,15,0,22.4,0C623.7,396.1,623.7,394.6,623.7,393z M601.2,403.6c7.7,0,15,0,22.6,0c-0.1-1.7,0.1-3.4-0.2-4.8
				c-7.6,0-15,0-22.4,0C601.2,400.4,601.2,402,601.2,403.6z M327.7,347.7c8,0,15.5,0,23.2,0c0-1.7,0-3.3,0-5c-7,0-13.9,0-21,0
				C329.3,344.3,328.6,345.9,327.7,347.7z M482.9,341.9c0-1.8,0-3.4,0-5c-7.2,0.2-14.7-0.4-21.6,0.2c0,1.7,0,3.2,0,4.8
				C468.6,341.9,475.7,341.9,482.9,341.9z M640.6,397.8c7.4,0,14.6,0,21.6,0c0-1.7,0-3.4,0-4.8c-7.3,0-14.4,0-21.6,0
				C640.6,394.6,640.6,396.1,640.6,397.8z M483,331.2c-7.3,0-14.5,0-21.9,0c0.3,1.7-0.1,3.4,0.3,4.8c7.3,0,14.5,0,21.6,0
				C483,334.4,483,332.8,483,331.2z M299.2,398.8c-6.1-0.1-10.7-1-13.7,4.8c7.8,0,15.5,0,23.2,0c0.9-1.5,1.5-3.1,1.5-4.9
				c-2.5,0-4.8,0-7.1,0c-0.2,0.5-0.4,1-0.6,1.3c-1.6,0.7-0.8-2.3-2.5-1.1c-0.1,0.6-0.2,1.3-0.3,2c-0.1,0-0.2,0-0.3,0
				C299.4,400.2,299.3,399.5,299.2,398.8z M439.5,331.2c0,1.8,0,3.4,0,5c7-0.2,14.3,0.4,20.9-0.2c0-1.7,0-3.2,0-4.8
				C453.3,331.2,446.5,331.2,439.5,331.2z M431.2,398.8c-7.2,0-14.1,0-20.9,0c0,1.7,0,3.4,0,4.8c7.1,0,13.9,0,20.9,0
				C431.2,402,431.2,400.4,431.2,398.8z M568.5,337c-0.1,1.6-0.2,3.3,0,4.8c7.1,0,14,0,20.9,0c0-1.7,0-3.2,0-4.8
				C582.5,337,575.6,337,568.5,337z M439.3,341.7c3,0.5,18.3,0.5,21,0c0-1.5,0-3.1,0-4.8c-7,0.3-14.3-0.6-21,0.3
				C439.3,338.7,439.3,340.2,439.3,341.7z M432.1,398.7c0,1.8,0,3.4,0,5c7-0.2,14.2,0.4,20.9-0.2c0-1.7,0-3.2,0-4.8
				C446,398.7,439.2,398.7,432.1,398.7z M438.5,331.2c-7.2,0-14.1,0-21.2,0c0.3,1.7-0.2,3.4,0.3,4.8c7.1,0,14,0,20.9,0
				C438.5,334.5,438.5,332.9,438.5,331.2z M410.2,397.8c7.2,0,14.1,0,21.2,0c-0.3-1.7,0.2-3.4-0.3-4.8c-7.1,0-14,0-20.9,0
				C410.2,394.6,410.2,396.2,410.2,397.8z M438.5,341.9c0-1.8,0-3.4,0-5c-7,0.2-14.3-0.4-20.9,0.2c0,1.7,0,3.2,0,4.8
				C424.6,341.9,431.4,341.9,438.5,341.9z M416.6,336.1c0-1.8,0-3.4,0-4.8c-6.6,0-13.1,0-19.5,0c0,1.7,0,3.3,0,4.8
				C403.6,336.1,410.1,336.1,416.6,336.1z M623.7,387.8c-7.7,0-15,0-22.3,0c0,1.5,0,2.9,0,4.1c7.6,0,14.9,0,22.3,0
				C623.7,390.6,623.7,389.2,623.7,387.8z M397.1,341.9c6.7,0,13.1,0,19.7,0c-0.1-1.7,0.1-3.4-0.2-4.8c-6.6,0-13,0-19.5,0
				C397.1,338.7,397.1,340.3,397.1,341.9z M699.6,398.6c-5.2,0-10,0-15,0c-1.3,2.2-3.7,2.3-6,2.2c0,1,0,1.9,0,2.7c7.1,0,14,0,21,0
				C699.6,401.9,699.6,400.4,699.6,398.6z M475,398.8c-4.8,0-9.5,0-14.4,0c-1.7,1.4-3.8,2.5-6.5,2c0,1,0,1.9,0,2.9
				c7-0.3,14.4,0.7,21-0.4C475,401.9,475,400.4,475,398.8z M496.8,403.7c0-1.8,0-3.4,0-5c-4.8,0-9.5,0-14.2,0
				c-2,2.1-4.2,2.8-6.7,1.5c0,1.2,0,2.2,0,3.4C482.9,403.7,489.8,403.7,496.8,403.7z M640.7,387.8c0,1.6,0,2.9,0,4.3
				c7.2-0.2,14.8,0.4,21.6-0.2c0-1.5,0-2.7,0-4.1C655.1,387.8,647.9,387.8,640.7,387.8z M704,347.8c7.2,0,14.5,0,21.8,0
				c0-1.7,0-3.4,0-5c-6.1,0-12,0-18,0c-0.1,0.6-0.1,1.3-0.2,2C706.5,345.6,705.3,346.7,704,347.8z M707.7,341.9c6.1,0,12,0,18.3,0
				c-0.5-1.7,0.3-3.4-0.3-4.8c-6.1,0-12,0-18,0C707.7,338.7,707.7,340.3,707.7,341.9z M860.7,337c-6.2,0-12.1,0-18,0
				c0,1.7,0,3.4,0,4.8c6.1,0,12,0,18,0C860.7,340.3,860.7,338.7,860.7,337z M619.4,331.2c-6.2,0-12.2,0-18.1,0c0,1.7,0,3.2,0,4.8
				c6.1,0,12,0,18.1,0C619.4,334.4,619.4,332.8,619.4,331.2z M699.5,408.8c0-1.6,0-2.9,0-4.3c-7,0.2-14.3-0.4-20.9,0.2
				c0,1.5,0,2.7,0,4.1C685.6,408.8,692.5,408.8,699.5,408.8z M475.8,408.4c3,0.5,18.2,0.5,21,0c0-1.3,0-2.6,0-4
				c-7,0.3-14.3-0.6-21,0.3C475.8,406,475.8,407.2,475.8,408.4z M454,404.5c0,1.6,0,2.9,0,4.3c7-0.2,14.3,0.4,20.9-0.2
				c0-1.5,0-2.7,0-4.1C467.9,404.5,461,404.5,454,404.5z M453.1,404.6c-7.2,0-14.1,0-20.9,0c0,1.5,0,2.9,0,4.1c7.1,0,13.9,0,20.9,0
				C453.1,407.3,453.1,406,453.1,404.6z M410.2,408.7c7.2,0,14.1,0,20.9,0c0-1.5,0-2.9,0-4.1c-7.1,0-13.9,0-20.9,0
				C410.2,406,410.2,407.2,410.2,408.7z M438.5,345.5c0-1,0-1.9,0-2.8c-6.9,0.2-14.3-0.4-20.9,0.2c0,1.7,0,3.2,0,4.8
				c4.6,0,9,0,13.4,0C433.1,345.5,435.2,343.9,438.5,345.5z M619.4,337c-6.2,0-12.1,0-18,0c0,1.7,0,3.4,0,4.8c6.1,0,12,0,18,0
				C619.4,340.3,619.4,338.7,619.4,337z M842.6,331.1c-0.2,1.7-0.2,3.4,0,5c6.2,0,12,0,17.9,0c0-1.7,0-3.4,0-5
				c-0.9,0-1.9-0.3-2.3,0.1c-1.3,1.3-3,1-4.1,0.6C850.3,330.5,846.8,331.3,842.6,331.1z M589.4,342.9c-7.2,0-14.1,0-21.1,0
				c0,1.7,0,3.3,0.1,5c4.6,0,9,0,13.1,0c2.4-2,4.6-4,7.8-2.3C589.4,344.6,589.4,343.8,589.4,342.9z M368,342.8c0,1.8,0,3.4,0,4.8
				c6.4,0,12.6,0,18.8,0c0-1.3,0-2.3,0-3.4c-2.4,0-4.6,0-6.9,0c-0.2-0.6-0.3-0.9-0.6-1.4C375.6,342.8,371.8,342.8,368,342.8z
				 M386.7,348.7c-6.4,0-12.6,0-18.7,0c0,1.5,0,2.9,0,4.1c6.4,0,12.5,0,18.7,0C386.7,351.4,386.7,350.1,386.7,348.7z M417.5,352.8
				c7.2,0,14.1,0,20.9,0c0-1.5,0-2.9,0-4.2c-2,1.6-3.6,2.4-6.2,2c-0.4-0.7-0.8-1.4-1.1-2c-4.5,0-9,0-13.5,0
				C417.5,350.1,417.5,351.4,417.5,352.8z M416.7,342.9c-6.7,0-13.1,0-19.7,0c0.1,1.7-0.1,3.4,0.2,5c4.1,0,8,0,11.6,0
				c2.4-2,4.7-4.1,7.8-2.4C416.7,344.6,416.7,343.8,416.7,342.9z M763,388.2c0-0.1-0.1-0.2-0.1-0.3c-6.5,0-12.9,0-19.5,0
				c1.3,1.7-1,2.5-0.7,4.1c5.9,0,12,0,17.9,0c0.4-1.1,0.8-2.3,1.1-3.3C762.3,388.5,762.7,388.3,763,388.2z M293,342.9
				c0.8,1.7,1.6,3.2,2.4,4.9c4.1,0,8.5,0,13.1,0c1.1-1.4,1.7-3,1.6-4.9C304.3,342.9,298.6,342.9,293,342.9z M639.7,341.9
				c0-1.9,0-3.4,0-5c-5.2,0.1-10.1-0.1-15,0.1c0,1.8,0,3.4,0,4.9C629.7,341.9,634.6,341.9,639.7,341.9z M624.5,347.7
				c5.2,0,10.2,0,15,0c0-1.7,0-3.4,0-4.8c-5.1,0-10.1,0-15,0C624.5,344.5,624.5,346,624.5,347.7z M497.6,397.6
				c3,0.5,12.5,0.5,15.2,0c0-1.5,0-3.1,0-4.8c-5.2,0.1-10.1-0.1-15.2,0.1C497.6,394.6,497.6,396.1,497.6,397.6z M640.6,341.9
				c5,0,9.7,0,14.4,0c0.1-0.9,0.1-1.7,0.1-2.7c0.8-0.7,1.8-1.4,2.9-2.2c-5.9,0-11.7,0-17.4,0C640.6,338.7,640.6,340.2,640.6,341.9z
				 M746.2,336.1c0-1.8,0-3.4,0-5c-5.2,0.1-10.1-0.1-15,0.1c0,1.8,0,3.4,0,4.9C736.1,336.1,741.1,336.1,746.2,336.1z M746.2,337
				c-5.2,0-10.2,0-15.3,0c0.1,1.7-0.1,3.4,0.2,4.8c5.2,0,10.1,0,15.1,0C746.2,340.2,746.2,338.7,746.2,337z M639.7,393
				c-5.2,0-10.2,0-15.3,0c0.1,1.7-0.1,3.4,0.2,4.8c5.2,0,10.1,0,15.1,0C639.7,396.1,639.7,394.6,639.7,393z M552.5,336.8
				c0,2,0,3.6,0,5c5.1,0,10.1,0,15.1,0c0-1.7,0-3.2,0-4.9c-3.8,0.4-7.8-0.9-11.3,0.6C555.2,336.3,553.8,337.3,552.5,336.8z
				 M477,347.7c-1.6-1-1.1-2.2-1-3.1c-0.2-0.9,1.5-0.8,1.1-1.7c-5.3,0-10.5,0-15.7,0c0,1.7,0,3.3,0,5
				C466.4,347.7,471.3,347.7,477,347.7z M663.2,403.6c4.8,0,9.7,0,14.6,0c-0.2-1.7,0.1-3.4-0.2-4.8c-5,0-9.7,0-14.3,0
				C663.2,400.4,663.2,402,663.2,403.6z M455.5,342.9c-5.5,0-10.8,0-16.1,0c0,1.7,0,3.2,0,4.8c4.9,0,9.7,0,14.3,0
				c-0.2-0.8-0.4-1.6-0.8-2.6C453.7,344.4,454.5,343.7,455.5,342.9z M397.1,348.6c0,1.6,0,2.9,0,4.3c6.4-0.2,13.4,0.4,19.5-0.2
				c0-1.5,0-2.7,0-4.5c-1.7,2.2-3.8,2.9-6.3,2.4c-0.3-0.6-0.8-1.3-1.3-2C405.3,348.6,401.3,348.6,397.1,348.6z M394.1,386.9
				c0.9,0,1.5,0,2,0c0.4-10.4,0.2-32.8-0.1-33.2c-0.7,0-1.3,0-1.9,0C394.1,364.8,394.1,375.8,394.1,386.9z M707.7,336.1
				c6.1,0,12,0,18.1,0c0-0.7,0-1.3,0-2.1c-2.2,0-4.3,0-6.6,0c-0.3-1-0.6-1.9-0.8-2.7c-3.5,0-7.1,0-10.6,0
				C707.7,332.9,707.7,334.5,707.7,336.1z M315.5,347.7c4,0,7.7,0,11.4,0c0.6-1.7,1.1-3.2,1.7-4.9c-4.8,0-9.2,0-13.8,0
				c-1.2,1.5-2.4,3.1-3.8,4.9c2.1,0.5,2.2-2.2,4.2-2C315.3,346.3,315.3,346.9,315.5,347.7z M295.1,348.7c-1.1,1.7-2.3,2.7-4.1,4.1
				c6.9,0,13.4,0,19.9,0c0.3-0.6,0.6-1.1,1.1-2c-1.8,0-3.2,0-4.8,0c0.3-0.9,0.6-1.5,0.8-2.1C303.7,348.7,299.5,348.7,295.1,348.7z
				 M351.7,337c1.3,1.7,1.5,4,3.4,4.9c4,0,7.9,0,11.8,0c0-1.7,0-3.4,0-4.9C361.9,337,356.9,337,351.7,337z M746.2,342.9
				c-5.2,0-10.1,0-15.1,0c0,1.7,0,3.4,0,5c2.6,0,5,0,7.6,0c1.7-2,3.8-3.6,7.3-2.6c-2,0.8-3.8,1.5-6.3,2.4c2.4,0,4.1,0,5.7,0
				c0.3-0.3,0.6-0.6,0.9-0.8C746.2,345.6,746.2,344.2,746.2,342.9z M677.6,408.7c0.2-1.4,0.3-2.8,0-4.2c-4.9,0-9.6,0-14,0
				c-0.9,1.5-1.7,2.8-2.4,4.2C666.6,408.7,672,408.7,677.6,408.7z M496.8,337c-4.5,0-8.7,0-12.9,0c0,1.7,0,3.4,0,4.8
				c4.4,0,8.6,0,12.9,0C496.8,340.3,496.8,338.7,496.8,337z M512.8,392c0-1.6,0-2.9,0-4.3c-5.2,0.1-10.1-0.1-15,0.1
				c0,1.5,0,2.9,0,4.2C502.9,392,507.8,392,512.8,392z M496.8,342.9c-4.5,0-8.7,0-13.1,0c0.1,1.7-0.1,3.4,0.2,4.8
				c4.5,0,8.7,0,12.9,0C496.8,346.1,496.8,344.5,496.8,342.9z M624.6,387.8c0,1.6,0,2.9,0,4.3c5.2-0.1,10.1,0.1,15-0.1
				c0-1.5,0-2.9,0-4.2C634.6,387.8,629.7,387.8,624.6,387.8z M509.1,333.9c1.2,0,2.5,0,3.9,0c-0.1-1-0.1-1.9-0.1-2.7
				c-5.2,0-10.1,0-15,0c0,1.7,0,3.4,0,4.9c3.1,0,6.2,0,9.1,0C507.6,335.4,508.3,334.7,509.1,333.9z M496.8,336.1c0-1.9,0-3.4,0-5
				c-4.4,0-8.7,0-12.9,0c0,1.9,0,3.4,0,5C488.2,336.1,492.4,336.1,496.8,336.1z M432.8,387.7c-5.5,0.1-10.8-0.1-16.2,0.1
				c0,1,0,1.7,0,2.4c-0.5,0.6-1.1,1-1.5,1.7c5.5,0,10.7,0,16,0c-0.2-0.5-0.4-0.8-0.6-1.1C431.4,389.9,432,389,432.8,387.7z
				 M461.2,352.8c5,0,9.7,0,14.5,0c0.1-0.9,0.1-1.7,0.1-3c0.3-0.1,0.9-0.4,2.1-1c-6.2,0-11.4,0-16.7,0
				C461.2,350.1,461.2,351.4,461.2,352.8z M439.4,352.8c4.6,0,9.1,0,13.6,0c0.1-0.7,0.1-1.3,0.2-1.8c-0.1-0.1-0.3-0.3-0.4-0.5
				c0.7-0.7,1.4-1.4,1.8-1.8c-4.8,0-10,0-15.2,0C439.4,350.1,439.4,351.4,439.4,352.8z M497.8,398.7c0,1.8,0,3.4,0,5
				c2.9,0,5.6,0,8.3,0c0.7-2.9,4.1-3.1,6.7-2.9c0-0.8,0-1.4,0-2C507.7,398.7,502.8,398.7,497.8,398.7z M397.1,397.8
				c4.3,0,8.3,0,12.2,0c0-1.7,0-3.4,0-4.8c-4.1,0-8.1,0-12.2,0C397.1,394.6,397.1,396.1,397.1,397.8z M397.1,398.8
				c-0.2,1.6-0.2,3.3,0,4.8c4.2,0,8.2,0,12.2,0c0-1.7,0-3.2,0-4.8C405.3,398.8,401.3,398.8,397.1,398.8z M483.8,352.8
				c4.5,0,8.7,0,12.9,0c0-1.5,0-2.9,0-4.1c-4.4,0-8.6,0-12.9,0C483.8,350.1,483.8,351.3,483.8,352.8z M601.2,330.3
				c3.8,0,7.7,0,11.5,0c0.1-1,0.2-1.9,0.3-2.6c2.3-0.8,4.2,1.5,6.4,0.3c0-0.3-0.1-0.6-0.1-1.3c-6.1,0.8-12-1.3-18.1-0.5
				C601.2,327.6,601.2,328.9,601.2,330.3z M624.5,352.8c3.3,0,6.3,0,9.4,0c0.6-0.7,1.3-1.4,1.9-2.2c1.3,0,2.6,0,3.8,0
				c0-0.7,0-1.3,0-1.9c-5.1,0-10.1,0-15.1,0C624.5,350.1,624.5,351.4,624.5,352.8z M397.2,387.8c0,1.3,0,2.7,0,4.1
				c4.1,0,8.1,0,12.3,0c-0.3-0.4-0.6-0.7-0.8-0.9c0.7-1,1.3-2,2.1-3.1C406.3,387.8,401.8,387.8,397.2,387.8z M854.5,347.7
				c-1.4-1.2-1-2.3-0.8-3.9c-0.1-0.3,1.4-0.1,0.9-1c-4,0-8,0-12,0c0,1.7,0,3.3,0,5C846.5,347.7,850.2,347.7,854.5,347.7z
				 M397.1,408.7c4.3,0,8.3,0,12.1,0c0-1.5,0-2.9,0-4.1c-4.1,0-8.1,0-12.1,0C397.1,406,397.1,407.3,397.1,408.7z M275.3,397.8
				c4.1,0,7.8,0,11.5,0c0.3-1.7,0.6-3.1,1-4.9c-1.6,0-2.9,0-4.2,0c-0.4,0.7-0.8,1.4-1.2,2c-1,0-1.7,0-2.7,0c-0.4-0.7-0.8-1.4-1.1-2
				c-1.1,0-2.2,0-3.3,0C275.3,394.6,275.3,396.1,275.3,397.8z M590.3,336.2c3.4,0,6.8,0.1,10.1-0.1c0-1.8,0-3.4,0-5
				c-3.4,0.1-6.7-0.3-10.1,0.1C590.3,332.9,590.3,334.4,590.3,336.2z M557.5,336.1c3.6,0,6.8,0,9.9,0c0-1.7,0-3.4,0-4.8
				c-3.4,0-6.6,0-9.9,0C557.5,332.9,557.5,334.4,557.5,336.1z M275.3,336.2c2.9,0,5.7,0,7.3,0c1.5-1.3,2.4-2.2,3.4-3.1
				c-0.3-0.6-0.6-1.3-1-1.9c-3.3,0-6.5,0-9.9,0C275.3,332.8,275.3,334.4,275.3,336.2z M367,347.7c0-1.8,0-3.4,0-4.9
				c-3.9,0-7.7,0-12,0c1.2,1,2,1.6,2.7,2.2c0.1,1.1-0.3,2,0.3,2.7C360.9,347.7,363.9,347.7,367,347.7z M781.8,387.8
				c-4.8,0-8.8,0-12.6,0c-0.4,0.9-1,1.7-0.9,2.3c0.1,1.2-1.2,1-1.8,1.9c4.8-0.1,9.1,0.1,13.4-0.1c0-1,0-1.7,0-2.8
				C780.2,389,780.8,388.5,781.8,387.8z M275.2,403.5c2.4,0,4.7,0,7.3,0c1.1-1.5,2.3-3,3.8-4.9c-4.1,0.1-7.3-0.2-11.1,0.1
				C275.2,400.4,275.2,401.9,275.2,403.5z M634.9,398.8c-3.6,0-6.9,0-10.4,0c0.2,1.7-0.2,3.4,0.2,4.8c3,0,5.8,0,8.4,0
				c-0.2-0.8-0.4-1.6-0.8-2.6C633.1,400.3,633.9,399.6,634.9,398.8z M367,348.7c-3.3,0-6.3,0-9.2,0c0,1.5,0,2.9,0,4.1
				c3.2,0,6.2,0,9.2,0C367,351.4,367,350.1,367,348.7z M600.4,337c-3.4,0-6.7,0-9.9,0c0,1.7,0,3.4,0,4.9c1.5,0,2.7,0,4,0
				c1.5-2,3.7-2.2,5.9-2.1C600.4,338.7,600.4,338,600.4,337z M298.1,336.1c-1.3-2.2,2.3-2.8,0.9-4.9c-4.8-0.5-8-0.1-9.8,4.9
				C292,336.1,294.8,336.1,298.1,336.1z M568.4,336.1c4.8,0,9.2,0,13.8,0c-0.1-1-0.1-1.9-0.1-2.7c-4.7,0-9.2,0-13.6,0
				C568.4,334.4,568.4,335.2,568.4,336.1z M741.1,387.8c-3.4,0-6.7,0-9.9,0c0,1.5,0,2.9,0,4.1c2.9,0,5.7,0,8.7,0
				c-0.3-0.4-0.6-0.7-0.8-0.9C739.7,390,740.3,389,741.1,387.8z M289.9,397.8c2.6,0,5.2,0,8,0c-1.2-2.1,2.4-2.7,1.1-4.8
				c-2.7,0-5.6,0-8.3,0C290.5,394.6,290.2,396.1,289.9,397.8z M505.5,352.9c0-1.6,0-2.9,0-4.1c-2.7,0-5.3,0-7.8,0c0,1.5,0,2.8,0,4.1
				C500.4,352.9,502.9,352.9,505.5,352.9z M291,392c2.7,0,5.5,0,8.8,0c-2.4-0.6-2.7-2.7-0.5-3.1c-0.1-0.4-0.1-0.7-0.1-1
				c-3.6,0-7.2,0-10.7,0C289.3,389.2,290.1,390.5,291,392z M303.1,397.8c2.6,0,5.2,0,7.9,0c0.3-0.6,0.6-1.2,1-2.1c-1.8,0-3.2,0-5,0
				c0.7-1.1,1.2-1.9,1.8-2.9c-2.2,0-3.8,0-5.9,0.2C303.7,395,303.7,395.5,303.1,397.8z M386.9,340.4c0-0.1,0-0.3,0-0.4
				c-6.3,0-12.6,0-18.8,0c0,0.8,0,1.3,0,2c3.8,0,7.6,0,11.3,0c0.1-0.4,0.3-0.8,0.6-1.5C382.1,340.4,384.5,340.4,386.9,340.4z
				 M853.1,330.3c0.6-0.8,1-1.5,1.4-2c2.8-0.3,4.1,0.7,6.9-0.7c-6.2,0.1-11.8,0.6-18,0.8c-0.3,0.5-0.6,1-1.1,1.9
				C846.1,330.3,849.6,330.3,853.1,330.3z M309.3,392.1c0.4-1.5,0.7-2.8,1.1-4.3c-2.4,0-4.5,0-6.9,0c0.8,1.5-1.4,2.7-0.3,4.3
				C305.3,392.1,307.2,392.1,309.3,392.1z M286.3,348.6c-0.1,0.6-0.2,1-0.2,1.2c-0.5-0.5-1-0.9-1.3-1.3c-1.7,0-2.3,0-3.9,0.2
				c2.1,3.6,5.6,4.5,9.2,3C289.2,349.3,289.1,348.1,286.3,348.6z M282.4,337c-2.3,0-4.7,0-7.1,0c0,1.7,0,3.2,0,4.8
				c1.4,0,2.7,0,3.8,0C280.2,340.3,281.3,338.7,282.4,337z M275.2,352.8c2.5,0,5.5,0.3,7.8-0.1c-1.6-1.4-3.1-2.8-4.8-4.3
				c-1,0.1-2,0.1-3.1,0.1C275.2,350.1,275.2,351.3,275.2,352.8z M287.1,326.1c0,1.6,0,2.9,0,4.2c4.6,0.6,4.8-5.8,2.6-7.5
				C288.7,324.1,287.8,325.2,287.1,326.1z M792.1,392c-1-1.9,0.8-2.8,1.7-4.2c-2.2,0-4,0-5.7,0c-0.4,1.9-0.4,1.9-2.4,4.2
				C787.9,392,790,392,792.1,392z M556.6,336.1c0-1.6,0-2.9,0-4.1c-0.3-0.3-0.6-0.6-0.9-0.9c-1,0-2.1,0-3.2,0c0,1.7,0,3.3,0,5
				C553.9,336.1,555.2,336.1,556.6,336.1z M283.4,387.6c-1,0.7-2.7,0.7-3.1,2.5c2.3,1.3,4.3,2.4,7.4,1.8
				C287.1,389.5,285.9,388.2,283.4,387.6z M861.5,342.7c0,0.8,0,1.3,0,2c-1.1,1-2.3,2-3.5,3c2.2,0,4.3,0,6.3,0c0-1.7,0-3.2,0-4.8
				C863.1,342.7,862.7,342.7,861.5,342.7z M707.7,330.2c7.1,0.5,15.9,0.3,18-0.5c-6,0.7-12-1.6-18.1-0.6
				C707.7,329.6,707.7,329.8,707.7,330.2z M352,348.5c0,1.5,0,2.9,0,4.3c1.7,0,3.2,0,5.2,0c-0.4-1.3-0.8-2.4-1-3.1
				C354.5,348.4,353.9,348.4,352,348.5z M509.7,358.6c1.3,0,2.7,0,4,0C514.3,351.9,505.4,354,509.7,358.6z M730.1,342
				c0.2-1.7,0.2-3.4,0-5c-1.3,0-2.4,0-3.6,0c0.1,1.7-0.1,3.4,0.2,5C728,342,728.9,342,730.1,342z M623.6,341.9c0-1.9,0-3.4,0-5
				c-1.3,0.1-2.4,0.1-3.4,0.1c0,1.8,0,3.3,0,4.9C621.5,341.9,622.5,341.9,623.6,341.9z M730.1,336.1c0-1.8,0-3.4,0-5
				c-1.3,0.1-2.4,0.1-3.4,0.1c0,1.8,0,3.3,0,4.9C727.9,336.1,728.9,336.1,730.1,336.1z M730.2,342.9c-1.4,0-2.4,0-3.4,0
				c0,1.7,0,3.4,0,4.8c1.3,0,2.3,0,3.4,0C730.2,346.1,730.2,344.5,730.2,342.9z M623.6,347.7c0-1.8,0-3.4,0-5
				c-1.3,0.1-2.4,0.1-3.4,0.1c0,1.8,0,3.3,0,4.9C621.5,347.7,622.5,347.7,623.6,347.7z M623.6,336.1c0-1.8,0-3.4,0-4.8
				c-1.3,0-2.4,0-3.4,0c0,1.7,0,3.2,0,4.8C621.5,336.1,622.5,336.1,623.6,336.1z M724.5,352.4c0,0.1,0.1,0.2,0.1,0.3
				c1.9,0,3.7,0,5.5,0c0-1.5,0-2.9,0-4.1c-1.3,0-2.3,0-3.2,0c-0.4,1.3-0.8,2.4-1.1,3.3C725.1,352.2,724.8,352.3,724.5,352.4z
				 M275.4,387.8c0,1.7,0,2.9,0,4.3c0.9,0,1.7,0,2.5,0c0.7-1.5,1.4-2.8,2.4-4.3C278.4,387.8,277.2,387.8,275.4,387.8z M793,392.1
				c3.4-0.5,5.2-1.7,6.6-4.3c-2.6-0.1-4.6,0.9-6.6,2.2C793,390.7,793,391.3,793,392.1z M279.2,347.7c-1.9-1.7-0.5-3.4-0.2-4.8
				c-1.4,0-2.6,0-3.6,0c0,1.7,0,3.2,0,4.8C276.5,347.7,277.6,347.7,279.2,347.7z M282.8,347.7c0.8-1.7,1.6-3.3,2.4-4.9
				c-1,0-2.1,0-3.3,0c-0.8,1.5-1.5,3.1-1.5,4.9C281.4,347.7,282.2,347.7,282.8,347.7z M861.6,337c0,1.8,0,3.4,0,5
				c1-0.1,1.9-0.1,2.7-0.1c0-1.8,0-3.3,0-4.9C863.4,337,862.5,337,861.6,337z M387.5,337c0.4,3-1.5,5.9,2.8,4.9c0-1.8,0-3.3,0-4.9
				C389.4,337,388.6,337,387.5,337z M861.6,331.2c0,1.8,0,3.4,0,5c1-0.1,1.9-0.1,2.7-0.1c0-1.8,0-3.3,0-4.9
				C863.4,331.2,862.5,331.2,861.6,331.2z M387.7,342.8c0,1.8,0,3.4,0,5c1-0.1,1.9-0.1,2.7-0.1c0-1.8,0-3.3,0-4.9
				C389.4,342.8,388.6,342.8,387.7,342.8z M390.4,348.7c-1.1,0-1.9,0-2.7,0c0,1.5,0,2.9,0,4.1c1,0,1.8,0,2.7,0
				C390.4,351.4,390.4,350.1,390.4,348.7z M396,397.8c0.6-1,0.1-2.4,0.3-3.6c0-1.3,0-1.3-2-1.3c0,1.6,0,3.2,0,4.9
				C394.9,397.8,395.5,397.8,396,397.8z M394.2,337c0,1.7,0,3.3,0,5c0.7,0,1.3,0,2,0c0-1.7,0-3.3,0-5C395.5,337,394.9,337,394.2,337
				z M394.1,347.7c0.9,0,1.5,0,2,0c0-1.7,0-3.4,0-4.8c-0.8,0-1.3,0-2,0C394.1,344.5,394.1,346.1,394.1,347.7z M396.2,331.2
				c-0.8,0-1.5,0-2,0c0,1.7,0,3.4,0,4.8c0.8,0,1.3,0,2,0C396.2,334.5,396.2,332.9,396.2,331.2z M394.2,398.7c0,1.7,0,3.3,0,5
				c0.7,0,1.3,0,2,0c0-1.7,0-3.3,0-5C395.5,398.7,394.9,398.7,394.2,398.7z M741.2,409.6c0.4,0.8,0.7,1.4,1,2c1.4,0,2.8,0,4.1,0
				c0-0.8,0-1.3,0-2C744.5,409.6,743,409.6,741.2,409.6z M394.2,348.6c0,1.6,0,2.9,0,4.3c0.8-0.1,1.5-0.1,2-0.1c0-1.5,0-2.8,0-4.2
				C395.5,348.6,394.9,348.6,394.2,348.6z M396.2,392c0-1.4,0-2.8,0-4.2c-0.7,0-1.3,0-2,0c0,1.4,0,2.8,0,4.2
				C394.9,392,395.5,392,396.2,392z M285.5,348c3.4,0.2,4-0.7,2.5-3.7C286.2,345.2,285.1,345.6,285.5,348z M394.2,404.5
				c0,1.4,0,2.8,0,4.2c0.7,0,1.3,0,2,0c0-1.4,0-2.8,0-4.2C395.5,404.5,394.9,404.5,394.2,404.5z M288.9,343.9
				c0.9,3.1,0.8,4.2,4.1,3.8C292.1,345.2,291.5,344.7,288.9,343.9z M507.9,403.2c0,0.1,0.1,0.3,0.1,0.4c1.6,0,3.2,0,5,0
				c-0.1-0.8-0.1-1.4-0.2-2.4C511,401.9,509.4,402.5,507.9,403.2z M656,353.8c0,0.8,0,1.3,0,2c2.1,0.4,3.4-1.2,5.5-2
				C659.3,353.8,657.7,353.8,656,353.8z M353.5,343.6c0.6,2.2,1.5,3.1,3.6,3.9C356.4,345.6,354.7,344.8,353.5,343.6z M745.5,408.7
				c-1.8-1.8-2.5-1.8-4.3,0C742.7,408.7,744.1,408.7,745.5,408.7z M308.8,395.1c1.8-0.1,2.7-0.1,3.7-0.2c-0.6-0.9-1-1.5-1.5-2.4
				C310.3,393.2,309.8,393.8,308.8,395.1z M292.8,348.7c-1,0-1.9,0-2.9,0c1,1.3,0.8,1.5,0.9,3.4
				C291.6,350.6,292.1,349.7,292.8,348.7z M312.3,337.1c-2.2-0.1-3.2,0.6-2.6,1.8c0.5,0,1,0,1.7,0
				C311.7,338.4,312,337.8,312.3,337.1z M300.2,395.5c1.3-0.8,2.2-1.2,2-2.7c-0.8,0.1-1.5,0.1-2,0.1
				C300.2,393.7,300.2,394.3,300.2,395.5z M313.1,348.7c-1.7,0-2.6,0-3.7,0c0.1,0.5,0.1,0.8,0.2,1.2
				C310.7,349.8,311.8,350.5,313.1,348.7z M552.5,328.2c0,0.8,0,1.5,0,2.3c1-0.1,1.8-0.2,3.1-0.3
				C554.4,329.3,553.5,328.8,552.5,328.2z M482.9,347.7c0-0.8,0-1.3,0-2c-1,0.6-1.9,1.3-3,2C481,347.7,481.9,347.7,482.9,347.7z
				 M302,331.2c-0.6,0-1.2,0-2,0c0.1,0.8,0.1,1.4,0.1,2C300.9,332.5,301.4,331.9,302,331.2z M309.6,405.8c0.7,0,1.3,0,2,0
				c0-0.4,0-0.8,0-1.2c-0.7,0-1.3,0-2,0C309.6,405,309.6,405.3,309.6,405.8z M301.8,390.6c-0.9,0.6-0.9,0.6-1.6,1.6
				c0.8-0.1,1.4-0.1,2.2-0.2C302.2,391.3,302,390.9,301.8,390.6z M460.2,346c-0.8,0.6-1.3,1-2.2,1.7c1.1,0,1.8,0,2.6,0
				C460.4,347.1,460.3,346.7,460.2,346z M508.9,353.8c-1,0-1.7,0-2.5,0c0.1,0.5,0.1,0.9,0.2,1.3
				C507.3,354.7,507.9,354.3,508.9,353.8z M416.7,357.5c-0.5,0.2-1,0.5-1.5,0.7c0.1,0.1,0.1,0.2,0.3,0.3c0.4,0,0.8,0,1.3,0
				C416.7,358.1,416.7,357.8,416.7,357.5z M302.1,397.8c0-0.2-0.1-0.4-0.1-0.6c-0.6,0.1-1.3,0.2-1.9,0.3c0,0.1,0,0.3,0.1,0.3
				C300.9,397.8,301.5,397.8,302.1,397.8z M483.1,352.9c-0.1-0.6-0.2-1-0.3-1.4c-0.3,0.6-0.7,1-0.9,1.4
				C482.2,352.9,482.5,352.9,483.1,352.9z M300,335.6c0,0.1,0,0.2,0,0.3c0.7,0,1.5,0,2.2,0c0-0.1,0-0.2,0-0.3
				C301.5,335.6,300.8,335.6,300,335.6z M288.7,331.5c-2.1-0.8-1.7,0.1-1.6,0.8C287.5,332.1,288,331.8,288.7,331.5z M300.2,330.1
				c1.1,0.2,1.1,0.2,1-1.5C300.8,329.3,300.5,329.8,300.2,330.1z M300.2,387.8c0,0.2,0.1,0.4,0.1,0.6c0.6-0.1,1.3-0.2,1.9-0.3
				c0-0.1,0-0.3-0.1-0.3C301.4,387.8,300.8,387.8,300.2,387.8z M438.7,358.7c-0.1-0.6-0.2-1-0.3-1.4c-0.3,0.6-0.7,1-0.9,1.4
				C437.7,358.7,438,358.7,438.7,358.7z M459.1,352.3c0,0.2,0.1,0.4,0.1,0.6c0.4-0.1,0.8-0.2,1.2-0.3c0-0.1-0.1-0.2-0.1-0.3
				C459.9,352.3,459.6,352.3,459.1,352.3z M353.3,347.6c0-0.1,0-0.2,0-0.3c-0.5,0-1,0-1.5,0c0,0.1,0,0.2,0,0.3
				C352.3,347.6,352.8,347.6,353.3,347.6z M416.2,354.3c0.1,0,0.1,0,0.2,0c0-0.2,0-0.5,0-0.7c-0.1,0-0.1,0-0.2,0
				C416.2,353.8,416.2,354.1,416.2,354.3z M482.4,353.8c0,0.1,0,0.1,0,0.2c0.2,0,0.5,0,0.7,0c0-0.1,0-0.1,0-0.2
				C482.9,353.8,482.6,353.8,482.4,353.8z M416.4,359.4c-0.1,0-0.1,0-0.2,0c0,0.2,0,0.5,0,0.7c0.1,0,0.1,0,0.2,0
				C416.4,359.9,416.4,359.6,416.4,359.4z M438.3,359.4c-0.1,0-0.1,0-0.2,0c0,0.2,0,0.5,0,0.7c0.1,0,0.1,0,0.2,0
				C438.3,359.9,438.3,359.6,438.3,359.4z M438.3,353.6c-0.1,0-0.1,0-0.2,0c0,0.2,0,0.5,0,0.7c0.1,0,0.1,0,0.2,0
				C438.3,354.1,438.3,353.8,438.3,353.6z M386.1,353.8c0,0.1,0,0.1,0,0.2c0.2,0,0.5,0,0.7,0c0-0.1,0-0.1,0-0.2
				C386.6,353.8,386.4,353.8,386.1,353.8z"/>
			<path class="st2" d="M273.1,331.4c-0.8,2.2-3.2,3.2-3.1,5.9c-1.5,1-0.1,2.7-1,3.9c-0.3,10.4,5,19.6-3.2,29.2
				c5.1,5.8,5.9,13.6,3.6,20.8c-0.7,1.6,0.8,4-0.7,5.5c-0.3,0.2-0.3,1-0.1,1.3c1,3.5,0.8,7.5,4,10c0.3,0.2,0.3,0.8,0.6,1.5
				c-15.3-11.8,1.5-29.2-9.1-39.1c3.9-3.8,5-9.2,3.1-14.4c-2-8.1-2-19.7,5.4-25C272.9,331.2,273,331.4,273.1,331.4z"/>
			<path class="st2" d="M741.2,385.5c-1.1-0.1-0.6-0.9-0.7-1.5C741.5,384.2,741,385,741.2,385.5z"/>
			<path class="st2" d="M740.3,384.2c-0.2-0.1-0.4-0.3-0.6-0.5c0.1-0.1,0.1-0.1,0.2-0.2c0.1,0.2,0.3,0.4,0.5,0.6
				C740.5,384.1,740.4,384.1,740.3,384.2z"/>
			<path class="st2" d="M289.9,361.5c-1.7,0.3-3.6,0.7-5.2,1c-1-1.1-1.7-2-2.8-3.1c0-0.3,0-1,0-2c0.5-0.4,1.2-1,1.9-1.7
				c0.6,0,1.4,0,2.2,0c2.1,2.7,1.8,3.6-1.2,6.1c2.4-0.6,3-0.8,5-1.1C289.9,361,289.9,361.3,289.9,361.5z"/>
			<path class="st2" d="M371.7,355.7c0.6,0.6,1,0.9,1.5,1.3c-0.7,0.4-1.3,0.8-2.8,1.5C371,357.1,371.2,356.5,371.7,355.7z"/>
			<path class="st2" d="M291.3,358.7c-0.1,0.6,0.3,1.4-0.7,1.5C290.7,359.6,290.2,358.7,291.3,358.7z"/>
			<path class="st2" d="M290.6,360.1c-0.2,0.2-0.5,0.5-0.7,0.7C290.1,360.6,290.4,360.4,290.6,360.1z"/>
			<path class="st2" d="M793.7,334c1.1,0.1,0.6,0.9,0.7,1.5C793.3,335.4,793.8,334.6,793.7,334z"/>
			<path class="st2" d="M793.6,334.1c-0.2-0.1-0.4-0.3-0.6-0.5c0.1-0.1,0.1-0.1,0.2-0.2c0.1,0.2,0.3,0.4,0.5,0.6
				C793.7,334,793.7,334,793.6,334.1z"/>
			<path class="st2" d="M506.4,405.2c0.2,0.2,0.5,0.5,0.7,0.7C506.9,405.7,506.6,405.4,506.4,405.2z"/>
			<path class="st2" d="M517.7,335.5c-0.5-0.5-0.8-0.8-1-1.1c0.3-0.4,0.7-0.8,1-1.1c0.4,0.3,0.7,0.7,1.1,1.1
				C518.5,334.7,518.1,335,517.7,335.5z"/>
			<path class="st2" d="M327.7,340.5c-0.5,0-1,0-1.7,0c-0.3-0.3-0.7-0.7-1-1c0.6-1.1,1.5-1.3,2.7-1
				C327.7,339.1,327.7,339.8,327.7,340.5z"/>
			<path class="st2" d="M333,339.1c0.4,0,0.8,0,1.2,0c0,0.7,0,1.3,0,2c-0.4,0-0.8,0-1.2,0C333,340.5,333,339.8,333,339.1z"/>
			<path class="st2" d="M329,339.9c0.8-0.1,1-0.1,1.6-0.1c-0.1,0.6-0.1,1-0.1,1.7C330,341,329.6,340.5,329,339.9z"/>
			<path class="st2" d="M327.8,340.5c0.2,0.1,0.4,0.3,0.6,0.5c-0.1,0.1-0.1,0.1-0.2,0.2c-0.1-0.2-0.3-0.4-0.5-0.6
				C327.7,340.5,327.8,340.5,327.8,340.5z"/>
			<path class="st2" d="M400.3,340.5c0,0-0.3,0.3-0.8,0.8c-0.3-0.3-0.6-0.7-1-1.1c0.3-0.3,0.6-0.6,1.1-1.2
				C399.9,339.6,400.1,340.1,400.3,340.5z"/>
			<path class="st2" d="M710.6,346.5c0-0.9,0-1.5,0-2.2c0.3-0.1,0.7-0.1,1.3-0.2c0.1,0.7,0.1,1.4,0.1,2.1
				C711.6,346.3,711.2,346.3,710.6,346.5z"/>
			<path class="st2" d="M605.2,341.3c-0.5-0.5-0.8-0.8-1-1.1c0.3-0.4,0.7-0.8,1-1.1c0.4,0.3,0.7,0.7,1.1,1.1
				C605.9,340.5,605.7,340.8,605.2,341.3z"/>
			<path class="st2" d="M572.6,346.3c-0.4,0-0.8,0-1.2,0c0-0.7,0-1.3,0-2c0.4,0,0.8,0,1.2,0C572.6,344.9,572.6,345.6,572.6,346.3z"
				/>
			<path class="st2" d="M399.6,344.2c0.3,0.3,0.7,0.7,1,1c-0.3,0.3-0.6,0.6-1.1,1.2c-0.3-0.5-0.5-1-0.8-1.4
				C398.9,344.9,399.2,344.5,399.6,344.2z"/>
			<path class="st2" d="M399.9,394.6c0,0,0.3,0.3,0.8,0.8c-0.3,0.3-0.7,0.6-1.1,1c-0.3-0.3-0.6-0.6-1.2-1
				C398.9,395,399.4,394.8,399.9,394.6z"/>
			<path class="st2" d="M398.5,401.2c0.3-0.3,0.7-0.7,1-1c0.3,0.3,0.6,0.6,1.3,1.2c-0.4,0.3-0.8,0.6-1.3,0.9
				C399.2,401.8,398.8,401.5,398.5,401.2z"/>
			<path class="st2" d="M845.8,344.2c0.3,0.3,0.7,0.7,1,1c-0.3,0.3-0.6,0.6-1.2,1.3c-0.3-0.4-0.6-0.8-0.9-1.3
				C845.1,344.9,845.4,344.5,845.8,344.2z"/>
			<path class="st2" d="M773.1,388.6c0.2,0.2,0.6,0.6,0.9,0.9c-0.3,0.3-0.7,0.6-1.1,1c-0.3-0.3-0.6-0.6-1.2-1.1
				C772.1,389.2,772.6,388.9,773.1,388.6z"/>
			<path class="st2" d="M294.8,396.4c-0.7,0-1.3,0-2,0c0-0.6,0-1.2,0-2c0.5-0.1,1.2-0.1,2-0.1C294.8,395,294.8,395.5,294.8,396.4z"
				/>
			<path class="st2" d="M292.9,389.2c0.7,0,1.3,0,2,0c0,0.6,0,1.2,0,2c-0.5,0.1-1.2,0.1-2,0.1C292.9,390.7,292.9,390.2,292.9,389.2z
				"/>
		</g>
	</g>
</g>
</svg>
