<?xml version="1.0" encoding="utf-8"?>
<!-- Generator: Adobe Illustrator 25.0.0, SVG Export Plug-In . SVG Version: 6.00 Build 0)  -->
<svg version="1.1" id="Layer_2_1_" xmlns="http://www.w3.org/2000/svg" xmlns:xlink="http://www.w3.org/1999/xlink" x="0px" y="0px"
	 viewBox="0 0 1417.3 1417.3" style="enable-background:new 0 0 1417.3 1417.3;" xml:space="preserve">
<style type="text/css">
	.st0{fill:none;stroke:#FFFFFF;stroke-linecap:round;stroke-linejoin:round;stroke-miterlimit:10;}
	.st1{fill:none;stroke:#FFFFFF;stroke-width:0.5;stroke-linecap:round;stroke-linejoin:round;stroke-miterlimit:9.9996;}
	.st2{fill:none;stroke:#FFFFFF;stroke-width:0.5;stroke-linecap:round;stroke-linejoin:round;stroke-miterlimit:10.0004;}
</style>
<g>
	<g>
		<rect x="209.1" y="716.5" class="st0" width="106.6" height="142.9"/>
		<g>
			<g>
				<path class="st0" d="M313.4,789.2c0,2.1-1.7,3.9-3.9,3.9c-2.1,0-3.9-1.7-3.9-3.9s1.7-3.9,3.9-3.9
					C311.7,785.3,313.4,787,313.4,789.2z"/>
			</g>
			<g>
				
					<ellipse transform="matrix(0.2298 -0.9732 0.9732 0.2298 -529.7188 909.1191)" class="st1" cx="309.5" cy="789.2" rx="2.4" ry="2.4"/>
			</g>
			<g>
				<path class="st0" d="M220.4,789.1c0,2.1-1.7,3.9-3.9,3.9c-2.1,0-3.9-1.7-3.9-3.9c0-2.1,1.7-3.9,3.9-3.9
					C218.7,785.2,220.4,787,220.4,789.1z"/>
			</g>
			<g>
				
					<ellipse transform="matrix(0.1891 -0.982 0.982 0.1891 -599.2623 852.5733)" class="st2" cx="216.6" cy="789.1" rx="2.4" ry="2.4"/>
			</g>
		</g>
	</g>
</g>
</svg>
