<?xml version="1.0" encoding="utf-8"?>
<!-- Generator: Adobe Illustrator 25.0.0, SVG Export Plug-In . SVG Version: 6.00 Build 0)  -->
<svg version="1.1" id="Layer_2_1_" xmlns="http://www.w3.org/2000/svg" xmlns:xlink="http://www.w3.org/1999/xlink" x="0px" y="0px"
	 viewBox="0 0 1417.3 1417.3" style="enable-background:new 0 0 1417.3 1417.3;" xml:space="preserve">
<style type="text/css">
	.st0{fill:none;stroke:#FFFFFF;stroke-miterlimit:10;}
</style>
<g>
	<g>
		<g>
			<path class="st0" d="M1317.7,371.1c0-0.2,0-0.4-0.2-0.5c-5.3-0.2-9.1,6.2-12.7,9.5c-3.4,4.8-9.6,1.8-14.4,1.3
				c-6.2-1.8-12.8-0.7-18.8-3.1c-3.4-1.4-7.1-1.8-10.7-2.5c-7.4-2.4,1.5-9.7-12.4-18.2c-4.9-3.6-3.1-11.3-2.9-16.6
				c0.4-7.2-0.9-13.1-1-20.4c-0.3-7-7.3-13.5-13.6-15.5c-1.6-0.5-6.1-2.7-7.2-4.7c-0.1-0.1-0.2-0.3-0.3-0.5
				c-0.1-0.1,0.2-1.4,0.7-1.4c0.2-0.1,0.4-0.3,0.6-0.4c4.6-2.1,10.7-2.5,13.2-7.6c0.7-2.4,6-1.7,4.5-3c-4.8-1.6-5.7,5.2-9.8,6
				c-3.3,1.5-7.7,1.6-10,4.7c-1.4,1.6-3.4-2.7-4.8-3.3c-1.7-1.6-5.2-5.3-2.9-7.4c1.8-1.1,3.5-2.3,4.1-4.4c1.1-2.7-3.1-2.1-4.5-2.9
				c-2.6-0.7,0.5-3-0.8-4.5c-1.3,0.9-1.1,2.6-1.4,4c-0.2,2.3,3.2,1.8,4.7,2.4c2.6,0.8-3,3.9-3.5,4.8c-0.6,1.1-1.4,1.1-2.4,0.8
				c-3.9-1.4-7.9,1.3-11.8,0c-1.3-0.6-8.6,0.8-8.7,2.1c1.6,1,4-0.5,5.7-0.9c1-0.4,1.9-0.5,2.9-0.1c3.5,1.2,7.1-0.9,10.6-0.3
				c3.3-0.1,3.5,3.7,5.3,5.6c1.6,1.8,3.2,3.6,4.9,5.3c8.9,8.8,18.7,7.8,22.1,16.8c0.4,1.2,0.8,2.6,1,4.1c0.3,1.9,0.3,10.7,0.7,12.6
				c0.3,1.6,0.4,4.8,0.4,5.4c-0.6,5.4-1.5,13.1,1.6,17.9c1.2,1.8-2.6,2-2.7,3.6c1.2,0.4,2-0.9,3-1.3c2.7-1.2,5.2,3.4,7.3,4.8
				c4.6,3.4,0.1,12.4,7.4,13.6c5.7,1,11.1,2.9,16.8,4c8.3,0.3,14.4,2.5,23.1,2.9c3.8,0.2,6.8-6.1,9.8-8.4
				C1312.5,373.4,1315.5,372.9,1317.7,371.1C1317.7,371.2,1317.7,371.2,1317.7,371.1L1317.7,371.1z"/>
		</g>
	</g>
</g>
</svg>
